<?xml version="1.0" encoding="utf-8"?>
<!-- Generator: Adobe Illustrator 19.2.1, SVG Export Plug-In . SVG Version: 6.00 Build 0)  -->
<svg version="1.1" id="Layer_1" xmlns="http://www.w3.org/2000/svg" xmlns:xlink="http://www.w3.org/1999/xlink" x="0px" y="0px"
	 viewBox="0 0 240 95" style="enable-background:new 0 0 240 95;" xml:space="preserve">
<style type="text/css">
	.st0{fill:#010202;}
</style>
<g>
	<g>
		<path class="st0" d="M43.1,29.4v-2.3h-3.4v2.3H43.1z M39.2,29.4v-2.3h-3.4v2.3H39.2z M35.2,29.4v-2.3h-3.4v2.3H35.2z M38.9,70.8
			h10.6V60.2H38.9V70.8z M42.7,64h3.8v2.5h-3.8V64z M43.2,66H46v-1.5h-2.8V66z M47,29.4v-2.3h-3.4v2.3H47z M58.9,29.4v-2.3h-3.4v2.3
			H58.9z M56.7,39.4h-2.8v5.3h2.8V39.4z M60.5,36.8H50v10.6h10.6C60.5,47.4,60.5,36.8,60.5,36.8z M57.1,45.2h-3.8v-6.2h3.8V45.2z
			 M43.2,44.7H46v-5.3h-2.8V44.7z M43.2,57.9H46v-5.1h-2.8V57.9z M38.9,36.3h10.6v-6.5H38.9V36.3z M45.4,32.7c0.1-0.1,0.2-0.1,0.4,0
			c0.5,0.5,1.4,0.5,1.9,0c0.1-0.1,0.2-0.1,0.4,0c0.1,0.1,0.1,0.2,0,0.4c-0.4,0.4-0.8,0.5-1.3,0.5c-0.5,0-0.9-0.2-1.3-0.5
			C45.3,33,45.3,32.8,45.4,32.7z M44.6,31.9c0.2,0,0.5,0.2,0.5,0.4s-0.2,0.4-0.5,0.4c-0.2,0-0.5-0.2-0.5-0.4
			C44.1,32.1,44.3,31.9,44.6,31.9z M41.3,32.7c0.1-0.1,0.2-0.1,0.4,0c0.5,0.5,1.4,0.5,1.9,0c0.1-0.1,0.2-0.1,0.4,0
			c0.1,0.1,0.1,0.2,0,0.4c-0.4,0.4-0.8,0.5-1.3,0.5c-0.5,0-0.9-0.2-1.3-0.5C41.2,33,41.2,32.8,41.3,32.7z M51,27.1h-3.4v2.3H51V27.1
			z M38.9,47.4h10.6V36.8H38.9V47.4z M42.7,38.9h3.8v6.2h-3.8V38.9z M38.9,59.7h10.6V47.9H38.9V59.7z M42.7,52.2l1.8-1.8l2,1.8v6.2
			h-3.8V52.2z M44.5,51l-1.2,1.2h2.6L44.5,51z M66.8,29.4v-2.3h-3.4v2.3H66.8z M54.9,29.4v-2.3h-3.4v2.3H54.9z M72,70.8h10.6V60.2
			H72V70.8z M75.3,64h3.8v2.4h-3.8V64z M75.8,66h2.8v-1.5h-2.8V66z M31.7,57.9h2.8v-5.1h-2.8V57.9z M31.7,66h2.8v-1.5h-2.8V66z
			 M27.9,59.7h10.6V47.9H27.9V59.7z M31.2,52.4c0-1.1,0.8-1.9,1.9-1.9c1.1,0,1.9,0.8,1.9,1.9v6h-3.8V52.4z M70.7,29.4v-2.3h-3.4v2.3
			H70.7z M72,59.7h10.6V47.9H72V59.7z M75.3,52.4c0-1.1,0.8-1.9,1.9-1.9s1.9,0.8,1.9,1.9v6h-3.8V52.4z M77.2,51
			c-0.7,0-1.3,0.6-1.4,1.3h2.7C78.5,51.5,77.9,51,77.2,51z M75.8,57.9h2.8v-5.2h-2.8V57.9z M39.4,26.7h3.9l0,0h3.9l0,0l0,0h3.9l0,0
			l0,0h4h23.6l-1.5-2.1H33.1l-1.5,2.1H39.4L39.4,26.7z M31.3,27.1h-3.4v2.3h3.4V27.1z M78.6,29.4v-2.3h-3.4v2.3H78.6z M27.9,36.8
			v10.6h10.6V36.8H27.9z M34.9,45.2h-3.8v-6.2h3.8V45.2z M34.5,39.4h-2.8v5.3h2.8V39.4z M27.9,70.8h10.6V60.2H27.9V70.8z M31.2,64
			h3.7v2.5h-3.8L31.2,64L31.2,64z M27.9,31.1L27.9,31.1v5.3h10.6v-6.5H27.9V31.1z M34,32.7c0.1-0.1,0.2-0.1,0.4,0
			c0.5,0.5,1.4,0.5,1.9,0c0.1-0.1,0.2-0.1,0.4,0c0.1,0.1,0.1,0.2,0,0.4c-0.4,0.4-0.8,0.5-1.3,0.5c-0.5,0-0.9-0.2-1.3-0.5
			C33.9,33,33.9,32.8,34,32.7z M33.2,31.9c0.2,0,0.5,0.2,0.5,0.4s-0.2,0.4-0.5,0.4c-0.2,0-0.5-0.2-0.5-0.4
			C32.7,32.1,33,31.9,33.2,31.9z M29.9,32.7c0.1-0.1,0.2-0.1,0.4,0c0.5,0.5,1.4,0.5,1.9,0c0.1-0.1,0.2-0.1,0.4,0
			c0.1,0.1,0.1,0.2,0,0.4c-0.4,0.4-0.8,0.5-1.3,0.5c-0.5,0-0.9-0.2-1.3-0.5C29.8,33,29.8,32.8,29.9,32.7z M33,51
			c-0.7,0-1.3,0.6-1.4,1.3h2.7C34.4,51.5,33.8,51,33,51z M66.2,51L65,52.2h2.6L66.2,51z M61,59.7h10.6V47.9H61V59.7z M64.4,52.2
			l1.8-1.8l2,1.8v6.2h-3.8V52.2z M64.9,57.9h2.8v-5.1h-2.8V57.9z M64.9,44.7h2.8v-5.3h-2.8V44.7z M59.2,29.9L59.2,29.9h-3.9l0,0l0,0
			H50v6.4h10.6v-6.4H59.2L59.2,29.9z M54.5,33.1c-0.4,0.4-0.8,0.5-1.3,0.5s-0.9-0.2-1.3-0.5c-0.1-0.1-0.1-0.2,0-0.4
			c0.1-0.1,0.2-0.1,0.4,0c0.5,0.5,1.4,0.5,1.9,0c0.1-0.1,0.2-0.1,0.4,0C54.5,32.8,54.5,33,54.5,33.1z M55.2,32.8
			c-0.2,0-0.5-0.2-0.5-0.4c0-0.2,0.2-0.4,0.5-0.4c0.2,0,0.5,0.2,0.5,0.4S55.4,32.8,55.2,32.8z M58.5,33.1c-0.4,0.4-0.8,0.5-1.3,0.5
			c-0.5,0-0.9-0.2-1.3-0.5c-0.1-0.1-0.1-0.2,0-0.4c0.1-0.1,0.2-0.1,0.4,0c0.5,0.5,1.4,0.5,1.9,0c0.1-0.1,0.2-0.1,0.4,0
			C58.6,32.8,58.6,33,58.5,33.1z M61,70.8h10.6V60.2H61V70.8z M64.4,64h3.8v2.4h-3.8V64z M64.9,66h2.8v-1.5h-2.8V66z M62.8,29.4
			v-2.3h-3.4v2.3H62.8z M79.1,27.1v2.3h3.5v-2.3H79.1z M72,36.3h10.6v-6.5H72V36.3z M78.3,32.7c0.1-0.1,0.2-0.1,0.4,0
			c0.5,0.5,1.4,0.5,1.9,0c0.1-0.1,0.2-0.1,0.4,0c0.1,0.1,0.1,0.2,0,0.4c-0.4,0.4-0.8,0.5-1.3,0.5c-0.5,0-0.9-0.2-1.3-0.5
			C78.2,33,78.1,32.8,78.3,32.7z M77.5,31.9c0.2,0,0.5,0.2,0.5,0.4s-0.2,0.4-0.5,0.4c-0.2,0-0.5-0.2-0.5-0.4
			C77,32.1,77.3,31.9,77.5,31.9z M74.2,32.7c0.1-0.1,0.2-0.1,0.4,0c0.5,0.5,1.4,0.5,1.9,0c0.1-0.1,0.2-0.1,0.4,0
			c0.1,0.1,0.1,0.2,0,0.4c-0.4,0.4-0.8,0.5-1.3,0.5c-0.5,0-0.9-0.2-1.3-0.5C74.1,33,74.1,32.8,74.2,32.7z M53.9,66h2.8v-1.5h-2.8V66
			z M61,47.4h10.6V36.8H61V47.4z M64.4,38.9h3.8v6.2h-3.8V38.9z M63.1,29.9L63.1,29.9L63.1,29.9H61v6.4h10.6v-6.4H67H63.1z
			 M65.4,33.1c-0.4,0.4-0.8,0.5-1.3,0.5c-0.5,0-0.9-0.2-1.3-0.5c-0.1-0.1-0.1-0.2,0-0.4c0.1-0.1,0.2-0.1,0.4,0
			c0.5,0.5,1.4,0.5,1.9,0c0.1-0.1,0.2-0.1,0.4,0C65.4,32.8,65.4,33,65.4,33.1z M66.1,32.8c-0.2,0-0.5-0.2-0.5-0.4
			c0-0.2,0.2-0.4,0.5-0.4c0.2,0,0.5,0.2,0.5,0.4C66.5,32.5,66.3,32.8,66.1,32.8z M67.2,32.7c0.5,0.5,1.4,0.5,1.9,0
			c0.1-0.1,0.2-0.1,0.4,0c0.1,0.1,0.1,0.2,0,0.4c-0.4,0.4-0.8,0.5-1.3,0.5s-0.9-0.2-1.3-0.5c-0.1-0.1-0.1-0.2,0-0.4
			C67,32.6,67.1,32.6,67.2,32.7z M72,47.4h10.6V36.8H72V47.4z M75.3,38.9h3.8v6.2h-3.8V38.9z M75.8,44.7h2.8v-5.3h-2.8V44.7z
			 M74.6,29.4v-2.3h-3.4v2.3H74.6z M55.3,51c-0.7,0-1.3,0.6-1.4,1.3h2.8C56.6,51.5,56,51,55.3,51z M53.9,57.9h2.8v-5.1h-2.8V57.9z
			 M50,59.7h10.6V47.9H50V59.7z M53.4,52.4c0-1.1,0.8-1.9,1.9-1.9c1.1,0,1.9,0.8,1.9,1.9v6h-3.8C53.4,58.4,53.4,52.4,53.4,52.4z
			 M50,70.8h10.6V60.2H50V70.8z M53.4,64h3.8v2.4h-3.8V64z"/>
	</g>
</g>
<g>
	<path class="st0" d="M112.3,48.3c0,2-1.5,3.4-4.3,3.4h-8.3v-2.2h2v-8.3h-2V39h8c2.9,0,4.2,1.5,4.2,3.3c0,1.2-1,2.7-3.3,2.7v0.2
		C111.1,45.2,112.3,46.9,112.3,48.3z M107.1,41.2h-2.5v2.9h2.5c1.2,0,1.8-0.7,1.8-1.4C108.9,41.9,108.3,41.2,107.1,41.2z
		 M104.6,49.5h2.6c1.5,0,2.2-0.8,2.2-1.7c0-0.9-0.6-1.7-2.1-1.7h-2.7V49.5z"/>
	<path class="st0" d="M119.5,45.6c0-1.6-0.7-2.2-1.9-2.2c-0.6,0-1.1,0.1-1.5,0.4c0.7,0.1,1,0.6,1,1.2c0,0.8-0.7,1.3-1.5,1.3
		c-0.7,0-1.5-0.5-1.5-1.5c0-1.5,1.7-2.5,4-2.5c2.6,0,4.2,0.9,4.2,3.3c0,1.6-0.2,2.7-0.2,3.9c0,0.4,0.1,0.6,0.4,0.6s0.5-0.1,0.5-0.7
		v-0.8h1.1v0.7c0,1.7-0.6,2.8-2.1,2.8c-0.9,0-1.7-0.4-1.7-1.9c0-0.4,0-0.8,0.1-1.1H120c-0.4,2.1-1.9,3.2-3.5,3.2c-1.7,0-3-0.9-3-2.7
		c0-1.6,1.5-3,4.4-3c0.5,0,1,0,1.5,0.1C119.4,46.1,119.5,45.8,119.5,45.6z M118.3,47.2c-1.5,0-2.1,0.8-2.1,1.5
		c0,0.7,0.5,1.1,1.2,1.1c0.8,0,1.8-0.5,1.9-2.5C119,47.3,118.7,47.2,118.3,47.2z"/>
	<path class="st0" d="M128.7,45.9c0.4-2.5,1.8-3.8,3.8-3.8c2,0,3.1,1.2,3.1,3.2v4.1h1.2v2.2h-5.3v-2.2h1.5v-2.9c0-1.6-0.5-2-1.5-2
		c-1.2,0-2.1,0.7-2.1,2v2.8h1.4v2.2H125v-2.2h1.7v-4.8H125v-2.2h3.7c0,0.8-0.1,2.6-0.2,3.4H128.7z"/>
	<path class="st0" d="M145.4,49.8L145.4,49.8c-0.6,1.2-1.8,2.3-3.6,2.3c-2.4,0-4.4-2.1-4.4-5c0-2.8,1.9-4.9,4.3-4.9
		c1.9,0,2.9,0.9,3.5,2.3h0.1c-0.1-0.5-0.2-1.3-0.2-1.9h4.1v2.2h-1.7V53h1.6v2.2h-5.7V53h1.7v-0.7C145.1,51.5,145.2,50.5,145.4,49.8z
		 M144.9,47c0-1.9-0.9-2.9-2.4-2.9c-1.4,0-2.3,1.1-2.3,2.9c0,1.9,0.8,3,2.2,3C144,50.1,144.9,49.1,144.9,47z"/>
	<path class="st0" d="M154.9,52c-2,0-3.1-1.1-3.1-3.2v-4.1h-1.5v-2.2h4.1v5.3c0,1.5,0.5,1.9,1.5,1.9c1.2,0,2.1-0.6,2.1-2.1v-2.8
		h-2.1v-2.2h4.7v7h1.5v2.2h-3.4c0-0.8,0.2-2.6,0.3-3.3h-0.2C158.2,51,156.4,52,154.9,52z"/>
	<path class="st0" d="M170.9,48.6l1,0.6c-0.8,1.8-2.2,2.7-4.1,2.7c-3,0-5-2.2-5-5c0-3.1,2.5-4.9,5-4.9c3.1,0,4.7,2.1,4.5,5.3h-6.7
		c0.1,1.8,1.3,2.7,2.8,2.7C169.6,50.1,170.4,49.6,170.9,48.6z M168,43.9c-1.2,0-2.1,0.9-2.2,2.1h4.3C170,44.7,169.2,43.9,168,43.9z"
		/>
	<path class="st0" d="M174.6,49.5v-4.7h-1.9v-1.2c2.1,0,3.4-0.9,3.3-3.9h1.2v3h3.6v2.2h-3.6V49c0,0.6,0.5,1,1.1,1
		c0.6,0,1.1-0.3,1.1-1v-1.3h1.4v1.6c0,1.9-1.6,2.7-3.1,2.7S174.6,51.2,174.6,49.5z"/>
	<path class="st0" d="M188,49.5v2.2h-5.7v-2.2h1.7v-4.8h-1.7v-2.2h4.3v7H188z M185.4,41.7c-0.9,0-1.5-0.7-1.5-1.5
		c0-0.8,0.7-1.5,1.5-1.5c0.8,0,1.5,0.7,1.5,1.5C186.9,41.1,186.2,41.7,185.4,41.7z"/>
	<path class="st0" d="M192.9,45.9c0.4-2.5,1.8-3.8,3.8-3.8c2,0,3.1,1.2,3.1,3.2v4.1h1.2v2.2h-5.3v-2.2h1.5v-2.9c0-1.6-0.5-2-1.5-2
		c-1.2,0-2.1,0.7-2.1,2v2.8h1.4v2.2h-5.7v-2.2h1.7v-4.8h-1.7v-2.2h3.7c0,0.8-0.1,2.6-0.2,3.4H192.9z"/>
	<path class="st0" d="M209.4,41.7c-0.8,0-1.3-0.5-1.3-1.3c0-0.8,0.6-1.6,1.7-1.6c1.5,0,2.2,1.1,2.2,2.1c0,1-0.6,2.1-1.9,2.4
		c0.7,0.5,1.2,1.4,1.2,2.6c0,2.1-1.5,3.3-4,3.3c-0.9,0-1.7-0.2-2.3-0.5c-0.6,0-1,0.4-1,0.8c0,0.4,0.3,0.6,0.8,0.6
		c1.4,0,2.5-0.1,4.3-0.1c1.8,0,3,0.8,3,2.2c0,1.8-1.8,3.5-5.3,3.5c-3.2,0-4.5-1-4.5-2.2c0-1.1,0.9-1.7,1.8-1.9
		c-1.1,0-1.7-0.6-1.7-1.3c0-0.9,0.8-1.7,1.7-1.9c-0.7-0.5-1.3-1.3-1.3-2.4c0-2,1.8-3.5,4.2-3.5c1,0,1.6,0.3,2.3,0.3
		c0.8,0,1.3-0.6,1.3-1.2c0-0.1,0-0.3-0.1-0.4C210.3,41.4,209.9,41.7,209.4,41.7z M204.3,52.5c0,0.6,0.9,0.9,2.7,0.9
		c1.6,0,2.4-0.4,2.4-1c0-0.4-0.3-0.7-1.4-0.7h-2.4C204.6,51.7,204.3,52.1,204.3,52.5z M207.4,47.8c1.1,0,1.8-0.7,1.8-1.8
		c0-1.2-0.7-1.9-1.8-1.9c-1.1,0-1.8,0.7-1.8,1.9C205.6,47.2,206.3,47.8,207.4,47.8z"/>
	<path class="st0" d="M104.7,68.6h2.1v2.2h-7.1v-2.2h2.1v-8.3h-2.1v-2.2h7.1v2.2h-2.1v2.9h5.5v-2.9h-2.1v-2.2h7.1v2.2h-2.2v8.3h2.2
		v2.2h-7.1v-2.2h2.1v-3.3h-5.5V68.6z"/>
	<path class="st0" d="M121.5,71.1c-2.9,0-5.2-2.2-5.2-5c0-2.9,2.3-4.9,5.2-4.9c2.9,0,5.2,2.1,5.2,4.9
		C126.6,68.9,124.3,71.1,121.5,71.1z M121.4,69.4c1.7,0,2.1-0.5,2.1-3.1c0-2.3-0.4-3.1-2.1-3.1c-1.6,0-2.2,0.6-2.2,3.1
		C119.3,68.7,119.7,69.4,121.4,69.4z"/>
	<path class="st0" d="M131.9,71.1c-2,0-3.1-1.1-3.1-3.2v-4.1h-1.5v-2.2h4.1v5.3c0,1.5,0.5,1.9,1.5,1.9c1.2,0,2.1-0.6,2.1-2.1v-2.8
		h-2.1v-2.2h4.7v7h1.5v2.2h-3.4c0-0.8,0.2-2.6,0.3-3.3h-0.2C135.3,70.1,133.4,71.1,131.9,71.1z"/>
	<path class="st0" d="M143.6,62.6c-0.7,0-1,0.3-1,0.9c0,2.2,6.1,0.8,6.1,4.7c0,2.1-1.8,2.9-3.6,2.9c-1.3,0-2.4-0.6-2.8-2h-0.1
		l0.1,1.8h-2v-3.4h2.4c0,1.5,0.7,2.3,2.2,2.3c0.8,0,1.3-0.4,1.3-1c0-2.2-6.1-0.8-6.1-4.7c0-1.8,1.6-2.8,3.2-2.8
		c1.5,0,2.6,0.7,2.7,2.1h0.1c0-0.6,0-1.2,0-1.8h2v3.3h-2.4C145.6,63.2,144.7,62.6,143.6,62.6z"/>
	<path class="st0" d="M157.9,67.7l1,0.6c-0.8,1.8-2.2,2.7-4.1,2.7c-3,0-5-2.2-5-5c0-3.1,2.5-4.9,5-4.9c3.1,0,4.7,2.1,4.5,5.3h-6.7
		c0.1,1.8,1.3,2.7,2.8,2.7C156.6,69.2,157.4,68.7,157.9,67.7z M154.9,63c-1.2,0-2.1,0.9-2.2,2.1h4.3C157,63.8,156.2,63,154.9,63z"/>
</g>
</svg>
