<?xml version="1.0" encoding="utf-8"?>
<!-- Generator: Adobe Illustrator 22.0.0, SVG Export Plug-In . SVG Version: 6.00 Build 0)  -->
<svg version="1.1" id="Layer_1" xmlns="http://www.w3.org/2000/svg" xmlns:xlink="http://www.w3.org/1999/xlink" x="0px" y="0px"
	 viewBox="0 0 1366 768" style="enable-background:new 0 0 1366 768;" xml:space="preserve">
<style type="text/css">
	.st0{fill:#293C5A;}
</style>
<path class="st0" d="M803.5,606.3c-36.1-23.3-72-46.5-108-69.7c-35.5-22.9-71-45.9-106.6-68.8c-2.9-1.9-3.8-3.9-3.8-7.2
	c0.1-84.3,0.1-168.6,0-252.9c0-4.9,1.5-7.7,5.5-10.5c33.8-23.7,67.5-47.7,101.2-71.6c1.2-0.9,2.5-1.7,4-2.7
	c15.2,9.8,30.4,19.6,45.6,29.5c19.9,12.8,39.7,25.8,59.6,38.4c3.8,2.4,5.3,4.9,5.3,9.5c-0.2,37.8,0,75.6,0,113.5c0,2,0,3.9,0,7.1
	c2.5-1.6,4.1-2.6,5.6-3.7c31.9-22.6,63.9-45.2,95.7-68c2.9-2,4.8-2.2,7.8-0.2c34.2,22.3,68.4,44.4,102.7,66.5
	c2.7,1.7,3.8,3.4,3.8,6.7c-0.1,41.7-0.1,83.3,0,125c0,2.9-0.6,4.8-3.1,6.7C947.7,504.2,876.7,554.6,805.7,605
	C805.1,605.4,804.5,605.7,803.5,606.3z M797.4,195.6c-1.2-0.9-2.1-1.7-3-2.3c-31.7-20.5-63.5-41-95.1-61.6c-3.1-2-4.9-1.2-7.4,0.6
	c-31.3,22.3-62.7,44.5-94.1,66.8c-1.3,0.9-2.6,1.9-4.1,3.1c1.1,0.9,1.8,1.6,2.6,2.1c32,20.7,64,41.4,96,62.1
	c2.7,1.7,4.3,1.1,6.6-0.5c31.7-22.6,63.5-45.1,95.3-67.7C795.2,197.6,796.1,196.7,797.4,195.6z M1013.4,319.6
	c-0.7-0.7-1.1-1.2-1.6-1.5c-32.5-21.1-65.1-42.2-97.7-63c-1.2-0.8-4.1-0.4-5.5,0.6c-11,7.5-21.8,15.3-32.7,23
	c-6.6,4.7-13.3,9.4-20.1,14.3c0.7,0.9,1.1,1.6,1.6,2.2c19.1,20.8,27.1,44.6,19.3,72.6c-0.3,1,0.6,2.9,1.5,3.5
	c10.1,6.7,20.3,13.3,30.6,19.8c1.1,0.7,3.2,0.7,4.3,0c3.4-2,6.5-4.5,10.2-7.1c-1.8-1.2-3.1-2.2-4.4-3.1c-6.1-3.8-12.2-7.5-18.3-11.3
	c-6.1-3.8-6.1-4.4-0.5-8.4c9-6.3,18.1-12.5,26.9-19c3.6-2.6,6.5-3,10.4-0.5c6.8,4.5,14,8.3,20.9,12.7c2.6,1.7,4.5,1.7,7.1-0.2
	c15-10.8,30.1-21.4,45.2-32.1C1011.6,321.3,1012.4,320.5,1013.4,319.6z M590.8,395.1c0,22.4-0.1,43.6,0.2,64.7
	c0,1.6,1.9,3.7,3.5,4.7c31.3,20.3,62.6,40.5,93.9,60.7c1.3,0.8,2.7,1.5,4.6,2.5c0-40.9,0-80.9-0.1-120.9c0-1.2-0.5-2.9-1.4-3.4
	c-7.9-5.3-16-10.5-25.2-16.5c0.9,3.3,1.3,5.2,1.9,7c5.3,17.8,10.6,35.7,15.9,53.5c0.6,2,0.6,4.3,1.1,7.8c-2.9-1.6-4.5-2.4-6-3.4
	c-8.4-5.3-16.7-10.9-25.3-16c-4.6-2.7-7.3-6.5-8.8-11.5c-5.7-18.6-11.7-37.1-17.1-55.8c-1.7-5.9-5.8-8.3-11.7-11
	c0,18.2,0,35.6,0,54.2C607.5,406,599.6,400.9,590.8,395.1z M929.2,496.7c-0.7-0.2-1.5-0.4-2.2-0.6c0-35.4,0-70.9,0-107.6
	c-3.1,2.1-4.5,3.2-6.1,4c-5.6,2.7-7.1,7-7.1,13.2c0.3,36.2,0.2,72.3,0.2,108.5c0,1.9,0,3.8,0,6.6c2.2-1.4,3.5-2.1,4.6-2.9
	c31.4-22.3,62.7-44.6,94.2-66.7c2.7-1.9,3.4-3.9,3.4-7c-0.1-37.8-0.1-75.7-0.1-113.5c0-1.6-0.2-3.1-0.3-5.2
	c-1.8,1.2-3.1,1.9-4.3,2.8c-14.3,10.1-28.5,20.3-42.9,30.3c-2.9,2-4,4.3-3.9,7.8c0.1,30.3,0.2,60.7,0,91
	c-0.1,16.9,2.5,12.3-11.6,22.5C945.2,485.5,937.2,491.1,929.2,496.7z M807.1,596.7c1.2-0.7,2.3-1.2,3.3-1.9
	c31.6-22.4,63.2-44.9,94.9-67.3c2.8-2,3.1-4.3,3.1-7.2c0-37.5,0-74.9,0-112.4c0-1.7-0.2-3.4-0.3-6.2c-8.7,6.1-16.6,11.5-24.2,17.3
	c-2.2,1.7-4.2,4.3-5,6.9c-14.8,45.2-29.3,90.4-44.2,135.6c-1.2,3.8-4.3,7.4-7.4,10.1c-4.9,4.2-10.5,7.6-15.8,11.4
	C805.6,587.2,805.1,588.4,807.1,596.7z M873.8,375.2c-0.9,1.5-1.6,2.6-2.3,3.7c-7.2,11.5-16.5,21.2-28.6,27.3
	c-34.8,17.4-70,18.5-104.9,0.4c-7.8-4-15.1-9-22.9-13.8c-4.4,3.1-8.9,6.3-14,10c34.7,22.4,68.5,44.3,102.5,66.2
	c34.1-24.2,68.1-48.3,102.6-72.8C894.9,388.8,884.4,382.1,873.8,375.2z M800.4,253.4c0-16.5,0-34,0-52.3c-2.3,1.5-3.9,2.5-5.5,3.6
	c-30.7,21.8-61.3,43.6-92.1,65.3c-3.1,2.2-4.3,4.3-4.3,8.1c0.1,37.8,0.1,75.6,0.1,113.5c0,1.6,0.2,3.2,0.3,5.6
	c3.5-2.4,6.2-4.5,9.1-6.2c2.8-1.7,3.6-3.7,3.2-7c-0.6-6.1-0.9-12.3-0.7-18.4c0.9-30.3,13-56.4,31.1-80c8.8-11.5,20-20.1,33.5-25.2
	C783.1,257.2,791.7,255.7,800.4,253.4z M590.8,207.9c0,7,0.2,13.3-0.1,19.5c-0.2,3.6,1,5.7,4.1,7.5c17.1,10.2,34.3,20.5,51.1,31.2
	c19,12,31.9,28.6,35.4,51.3c2.1,13.5,2.1,26.8-8,37.6c-3.8,4-8.6,7.1-13.2,10.8c0.8,7.9,3.9,14.8,12.4,18.6c3.8,1.7,7,4.4,10.5,6.7
	c3,1.9,6,3.8,9.4,6.1c0.2-1.6,0.4-2.3,0.4-2.9c0-39.1,0.1-78.3-0.1-117.4c0-1.9-1.9-4.5-3.6-5.7c-31.2-20.4-62.6-40.6-93.9-60.8
	C594.2,209.7,592.9,209,590.8,207.9z M800.1,597.1c1.5-5.6,1.1-9.8-4.4-12.1c-5.1-2.1-7.5-6.1-7.9-11.6c-0.3-3.1-1.2-6.2-1.9-9.3
	c-1.8-8.5-3.6-17-5.7-26.9c-6,8.3-11.2,15.3-16.1,22.5c-2.1,3-4,3.3-7,1.3c-7-4.8-14-9.6-21.4-13.8c-4.9-2.8-6.7-6.6-7.7-11.9
	c-7.8-40.3-15.8-80.6-23.9-120.9c-0.5-2.3-2.6-4.2-3.9-6.3c-0.5,0.3-0.9,0.5-1.4,0.8c-0.1,1.3-0.3,2.6-0.3,3.9
	c0,38.3,0,76.6-0.1,115c0,3.1,1.2,4.8,3.7,6.4c31.5,20.3,63,40.6,94.4,60.9C797.6,595.8,798.6,596.3,800.1,597.1z M749.9,368.1
	c4.5,3,8.1,6.2,12.2,8c22.4,9.9,43.9,7.2,63.9-6.4c4.7-3.2,7.7-9,11.2-13.7c1.7-2.3,1-4-1.6-5.7c-9.6-6-19.1-12.2-28.5-18.4
	c-2.5-1.6-4.2-1.6-6.6,0.2c-14.2,10.2-28.5,20.3-42.7,30.4C755.4,364.1,753.1,365.8,749.9,368.1z M756.5,505.6
	c3.3-4.8,5.7-8.3,8.2-11.8c7.9-11.3,5.6-11.3,17.8-4.1c5.8,3.4,11.6,6.8,18.4,10.8c0-8.3-0.1-15.4,0.1-22.5c0.1-3.1-1-4.8-3.6-6.5
	c-17-10.8-33.9-21.8-50.8-32.7c-1-0.7-2.2-1.1-4.2-2C747.1,459.8,751.6,481.9,756.5,505.6z M748.9,360.6c1.3-0.1,1.6-0.1,1.9-0.2
	c16-11.3,32.1-22.6,48-34c1.1-0.8,1.9-2.8,1.9-4.2c0.2-8.1,0-16.3,0.1-24.4c0.1-3.3-1.3-4.4-4.5-4.2c-8.1,0.6-15.1,4.1-21,9.4
	C758.2,318.1,751.6,338.2,748.9,360.6z M616.7,284.1c0,13.4,0,25.2,0.1,37c0,1,0.7,2.4,1.5,2.8c5.3,2.7,10.5,6,16.2,7.4
	c9,2.3,14.1-2,14.9-11.1c0.8-9-3.2-16.1-9.8-21.3C632.8,293.8,625.2,289.6,616.7,284.1z M834.5,455.4c-0.4-0.3-0.7-0.5-1.1-0.8
	c-8.5,6.1-17.1,12-25.5,18.3c-1.2,0.9-1.7,3.1-1.7,4.8c-0.2,9.5-0.8,19.1,0.2,28.5c0.6,5.9,3.7,11.5,5.6,17.2
	c0.5-0.2,1.1-0.3,1.6-0.5C820.6,500.4,827.6,477.9,834.5,455.4z M839.3,346.2c0-13.7-6.9-22.3-15.8-30.4c-5,3.5-9.6,6.8-14.8,10.6
	C819,333.1,828.7,339.4,839.3,346.2z"/>
</svg>
