<?xml version="1.0" encoding="utf-8"?>
<!-- Generator: Adobe Illustrator 19.2.1, SVG Export Plug-In . SVG Version: 6.00 Build 0)  -->
<svg version="1.1" id="Layer_1" xmlns="http://www.w3.org/2000/svg" xmlns:xlink="http://www.w3.org/1999/xlink" x="0px" y="0px"
	 viewBox="0 0 240 95" style="enable-background:new 0 0 240 95;" xml:space="preserve">
<style type="text/css">
	.st0{fill:#FFFFFF;}
</style>
<g>
	<g>
		<path class="st0" d="M60.2,38.5h-2.4v2.3h2.4V38.5z M63.1,38.5h-2.3v2.3h2.3V38.5z M66,73.8h2.8V63.2H66V73.8z M68.8,41.2H66v10.5
			h2.8V41.2z M44.1,62.7h10.4v-0.5c-0.3-2.6-2.5-4.5-5.2-4.5C46.5,57.7,44.2,59.9,44.1,62.7z M54.5,52.2H43.8v9.2
			c0.7-2.4,2.9-4.2,5.5-4.2c2.3,0,4.3,1.4,5.2,3.4L54.5,52.2L54.5,52.2z M68.8,33h-1.2v-2.7H66v10.5h2.8V33z M63.6,40.7h2v-2.3h-2
			V40.7z M57.7,51.7h7.8V41.2h-7.8V51.7z M61,45.9c0-0.4,0.3-0.7,0.7-0.7c0.4,0,0.7,0.3,0.7,0.7l0,3.1H61L61,45.9L61,45.9z
			 M57.7,62.7h7.8V52.2h-7.8V62.7z M61,56.9c0-0.4,0.3-0.7,0.7-0.7c0.4,0,0.7,0.3,0.7,0.7l0,3.1H61L61,56.9L61,56.9z M57.7,73.8h7.8
			V63.2h-7.8V73.8z M61,67.9c0-0.4,0.3-0.7,0.7-0.7c0.4,0,0.7,0.3,0.7,0.7l0,3.1H61L61,67.9L61,67.9z M69.3,62.7h3.9V52.2h-3.9V62.7
			z M73.7,73.8h2.8V63.2h-2.8V73.8z M69.3,51.7h3.9V41.2h-3.9V51.7z M73.2,30.2h-1V33h-1.9v-2.7h-1V33h0v7.8h3.9V33h0V30.2z
			 M69.3,73.8h3.9V63.2h-3.9V73.8z M73.7,62.7h2.8V52.2h-2.8V62.7z M66,62.7h2.8V52.2H66V62.7z M74.9,30.2V33h-1.2v7.8h2.8V30.2
			H74.9z M73.7,51.7h2.8V41.2h-2.8V51.7z M40.5,38.5h-2.4v2.3h2.4V38.5z M37.6,38.5h-2.3v2.3h2.3V38.5z M29.5,73.8h2.8V63.2h-2.8
			V73.8z M29.5,51.7h2.8V41.2h-2.8V51.7z M32.3,30.2h-1.6V33h-1.2v7.8h2.8V30.2z M34.8,38.5h-2v2.3h2L34.8,38.5L34.8,38.5z
			 M32.8,51.7h7.8V41.2h-7.8V51.7z M36,45.9c0-0.4,0.3-0.7,0.7-0.7c0.4,0,0.7,0.3,0.7,0.7V49H36L36,45.9z M32.8,62.7h7.8l0-10.5
			h-7.8V62.7z M36,56.9c0-0.4,0.3-0.7,0.7-0.7c0.4,0,0.7,0.3,0.7,0.7V60H36L36,56.9z M32.8,73.8h7.8V63.2h-7.8V73.8z M36,67.9
			c0-0.4,0.3-0.7,0.7-0.7c0.4,0,0.7,0.3,0.7,0.7V71H36L36,67.9z M25.2,62.7h3.9V52.2h-3.9V62.7z M21.8,73.8h2.8V63.2h-2.8V73.8z
			 M25.2,51.7h3.9V41.2h-3.9V51.7z M29,30.2h-1V33h-1.9v-2.7h-1V33h0v7.8h3.9V33h0V30.2z M25.2,73.8h3.9V63.2h-3.9V73.8z M21.8,62.7
			h2.8V52.2h-2.8V62.7z M29.5,62.7h2.9V52.2h-2.9V62.7z M23.4,30.2h-1.6v10.5h2.8V33h-1.2L23.4,30.2L23.4,30.2z M21.8,51.7h2.8V41.2
			h-2.8V51.7z M56.6,23c-0.2-0.2-0.4-0.4-0.5-0.6c-0.1,0.2-0.3,0.4-0.5,0.6c-0.7,0.5-0.6,1.4-0.6,1.4v9.1v0l0,39.8H43.4l0-48.9
			c0,0,0.1-0.9-0.6-1.4c-0.2-0.2-0.4-0.4-0.5-0.6c-0.1,0.2-0.3,0.4-0.5,0.6c-0.7,0.5-0.6,1.4-0.6,1.4v49.3l16.2,0V24.5
			C57.3,24.4,57.3,23.5,56.6,23z M54.5,33.5h-1.3v2.7h-2v-2.7h-0.9v-5.9c0-0.5-0.4-0.9-0.9-0.9c-0.5,0-0.9,0.4-0.9,0.9v5.9h-0.9v2.7
			h-1.7v-2.7h-2l0,7.2h10.7C54.5,40.7,54.5,33.5,54.5,33.5z M54.5,41.2H43.8l0,10.5h10.7C54.5,51.7,54.5,41.2,54.5,41.2z M50.8,43.1
			c0-0.4,0.3-0.7,0.7-0.7c0.4,0,0.7,0.3,0.7,0.7l0,3.1h-1.4L50.8,43.1L50.8,43.1z M46.4,43.1c0-0.4,0.3-0.7,0.7-0.7
			c0.4,0,0.7,0.3,0.7,0.7l0,3.1h-1.3V43.1z M46.4,50.5v-3.1c0-0.4,0.3-0.7,0.7-0.7c0.4,0,0.7,0.3,0.7,0.7l0,3.1H46.4z M50.8,50.5
			v-3.1c0-0.4,0.3-0.7,0.7-0.7c0.4,0,0.7,0.3,0.7,0.7l0,3.1H50.8z"/>
	</g>
</g>
<g>
	<path class="st0" d="M98.7,52.2h2.1v2.2h-7.1v-2.2h2.1v-8.3h-2.1v-2.2h7.1v2.2h-2.1v2.9h5.5v-2.9h-2.1v-2.2h7.1v2.2h-2.2v8.3h2.2
		v2.2h-7.1v-2.2h2.1V49h-5.5V52.2z"/>
	<path class="st0" d="M116.9,48.3c0-1.6-0.7-2.2-1.9-2.2c-0.6,0-1.1,0.1-1.5,0.4c0.7,0.1,1,0.6,1,1.2c0,0.8-0.7,1.3-1.5,1.3
		c-0.7,0-1.5-0.5-1.5-1.5c0-1.5,1.7-2.5,4-2.5c2.6,0,4.2,0.9,4.2,3.3c0,1.6-0.2,2.7-0.2,3.9c0,0.4,0.1,0.6,0.4,0.6s0.5-0.1,0.5-0.7
		v-0.8h1.1v0.7c0,1.7-0.6,2.8-2.1,2.8c-0.9,0-1.7-0.4-1.7-1.9c0-0.4,0-0.8,0.1-1.1h-0.2c-0.4,2.1-1.9,3.2-3.5,3.2
		c-1.7,0-3-0.9-3-2.7c0-1.6,1.5-3,4.4-3c0.5,0,1,0,1.5,0.1C116.9,48.9,116.9,48.6,116.9,48.3z M115.8,50c-1.5,0-2.1,0.8-2.1,1.5
		c0,0.7,0.5,1.1,1.2,1.1c0.8,0,1.8-0.5,1.9-2.5C116.4,50,116.1,50,115.8,50z"/>
	<path class="st0" d="M125.9,48.6h0.2c0.3-2.2,1.6-3.6,3.4-3.6c1.6,0,2.3,1.1,2.3,2.6c0,0.1,0,0.4,0,0.6h0.1
		c0.2-2.1,1.8-3.2,3.4-3.2c1.9,0,2.9,1.2,2.9,3.2v4.1h1.3v2.2h-5.1v-2.2h1.2v-3c0-1.5-0.4-2-1.3-2c-1.1,0-1.8,0.6-1.8,2v2.9h1.2v2.2
		h-5v-2.2h1.2v-3.1c0-1.5-0.3-1.9-1.3-1.9c-1.1,0-1.8,0.7-1.8,2.1v2.9h1.2v2.2h-5.5v-2.2h1.7v-4.8h-1.7v-2.2h3.7
		C126.1,46.1,126,47.9,125.9,48.6z"/>
	<path class="st0" d="M143.8,47.3L143.8,47.3c0.7-1.4,1.7-2.4,3.6-2.4c2.4,0,4.3,2,4.3,5c0,2.8-2,5-4.4,5c-1.8,0-3-1-3.4-2.2h-0.1
		c0.1,0.9,0.3,2.1,0.3,3.1h1.7V58h-5.8v-2.2h1.7v-8.3h-1.7v-2.2h4.1C144,46,143.9,46.8,143.8,47.3z M144.2,49.9c0,2,0.9,3.1,2.4,3.1
		c1.4,0,2.2-1.2,2.2-3.1c0-1.8-0.9-2.9-2.3-2.9C145,47,144.2,47.9,144.2,49.9z"/>
	<path class="st0" d="M154.1,52.2v-4.7h-1.9v-1.2c2.1,0,3.4-0.9,3.3-3.9h1.2v3h3.6v2.2h-3.6v4.3c0,0.6,0.5,1,1.1,1
		c0.6,0,1.1-0.3,1.1-1v-1.3h1.4v1.6c0,1.9-1.6,2.7-3.1,2.7C155.7,54.8,154.1,53.9,154.1,52.2z"/>
	<path class="st0" d="M166.5,54.8c-2.9,0-5.2-2.2-5.2-5c0-2.9,2.3-4.9,5.2-4.9c2.9,0,5.2,2.1,5.2,4.9
		C171.7,52.5,169.4,54.8,166.5,54.8z M166.5,53c1.7,0,2.1-0.5,2.1-3.1c0-2.3-0.4-3.1-2.1-3.1c-1.6,0-2.2,0.6-2.2,3.1
		C164.4,52.3,164.8,53,166.5,53z"/>
	<path class="st0" d="M176.1,48.7c0.4-2.5,1.8-3.8,3.8-3.8c2,0,3.1,1.2,3.1,3.2v4.1h1.2v2.2h-5.3v-2.2h1.5v-2.9c0-1.6-0.5-2-1.5-2
		c-1.2,0-2.1,0.7-2.1,2v2.8h1.4v2.2h-5.7v-2.2h1.7v-4.8h-1.7v-2.2h3.7c0,0.8-0.1,2.6-0.2,3.4H176.1z"/>
	<path class="st0" d="M103.9,62.7l-0.1-2.2h2.3v5h-2.4c-0.1-1.8-1.5-2.8-3.1-2.8c-1.8,0-3.6,1.3-3.6,4.2c0,2.8,1.9,4.3,4,4.3
		c1.4,0,2.6-0.7,3.3-2.2l2,1.3c-0.6,1.9-2.6,3.4-5.3,3.4c-4.6,0-7.1-2.7-7.1-6.7c0-4.6,3.3-6.7,6.1-6.7c1.7,0,3.3,0.8,3.8,2.3H103.9
		z"/>
	<path class="st0" d="M112.5,73.9c-2.9,0-5.2-2.2-5.2-5c0-2.9,2.3-4.9,5.2-4.9c2.9,0,5.2,2.1,5.2,4.9
		C117.7,71.6,115.4,73.9,112.5,73.9z M112.5,72.1c1.7,0,2.1-0.5,2.1-3.1c0-2.3-0.4-3.1-2.1-3.1c-1.6,0-2.2,0.6-2.2,3.1
		C110.3,71.4,110.8,72.1,112.5,72.1z"/>
	<path class="st0" d="M123,73.9c-2,0-3.1-1.1-3.1-3.2v-4.1h-1.5v-2.2h4.1v5.3c0,1.5,0.5,1.9,1.5,1.9c1.2,0,2.1-0.6,2.1-2.1v-2.8H124
		v-2.2h4.7v7h1.5v2.2h-3.4c0-0.8,0.2-2.6,0.3-3.3h-0.2C126.3,72.8,124.5,73.9,123,73.9z"/>
	<path class="st0" d="M138.2,64c1.5,0,2.3,0.9,2.3,2.1c0,1.1-0.7,1.9-1.8,1.9c-1,0-1.6-0.7-1.6-1.5c0-0.5,0.2-0.8,0.5-1
		c-0.2,0-0.3,0.1-0.6,0.1c-0.7,0.3-1.4,1.3-1.4,2.8v2.9h2.2v2.2h-6.4v-2.2h1.6v-4.8h-1.7v-2.2h3.8c0,0.7-0.1,2-0.2,2.9h0.2
		C135.3,65.3,136.6,64,138.2,64z"/>
	<path class="st0" d="M143.5,71.3v-4.7h-1.9v-1.2c2.1,0,3.4-0.9,3.3-3.9h1.2v3h3.6v2.2h-3.6v4.3c0,0.6,0.5,1,1.1,1
		c0.6,0,1.1-0.3,1.1-1v-1.3h1.4v1.6c0,1.9-1.6,2.7-3.1,2.7C145.1,73.9,143.5,73,143.5,71.3z"/>
	<path class="st0" d="M155.3,73.6v-2.2h2.1V63h-2.1v-2.2h7.7c2.7,0,5.1,1.4,5.1,4c0,2.1-1.7,4-5.3,4h-2.5v2.6h2.3v2.2H155.3z
		 M160.3,63v3.7h2.1c1.7,0,2.5-0.8,2.5-1.9c0-1-0.6-1.9-2.2-1.9H160.3z"/>
	<path class="st0" d="M174.7,67.4c0-1.6-0.7-2.2-1.9-2.2c-0.6,0-1.1,0.1-1.5,0.4c0.7,0.1,1,0.6,1,1.2c0,0.8-0.7,1.3-1.5,1.3
		c-0.7,0-1.5-0.5-1.5-1.5c0-1.5,1.7-2.5,4-2.5c2.6,0,4.2,0.9,4.2,3.3c0,1.6-0.2,2.7-0.2,3.9c0,0.4,0.1,0.6,0.4,0.6
		c0.2,0,0.5-0.1,0.5-0.7v-0.8h1.1v0.7c0,1.7-0.6,2.8-2.1,2.8c-0.9,0-1.7-0.4-1.7-1.9c0-0.4,0-0.8,0.1-1.1h-0.2
		c-0.4,2.1-1.9,3.2-3.5,3.2c-1.7,0-3-0.9-3-2.7c0-1.6,1.5-3,4.4-3c0.5,0,1,0,1.5,0.1C174.7,68,174.7,67.7,174.7,67.4z M173.6,69.1
		c-1.5,0-2.1,0.8-2.1,1.5c0,0.7,0.5,1.1,1.2,1.1c0.8,0,1.8-0.5,1.9-2.5C174.3,69.1,173.9,69.1,173.6,69.1z"/>
	<path class="st0" d="M186.6,71.3v2.2h-5.7v-2.2h1.7V63h-1.7v-2.2h4.3v10.5H186.6z"/>
	<path class="st0" d="M194,67.4c0-1.6-0.7-2.2-1.9-2.2c-0.6,0-1.1,0.1-1.5,0.4c0.7,0.1,1,0.6,1,1.2c0,0.8-0.7,1.3-1.5,1.3
		c-0.7,0-1.5-0.5-1.5-1.5c0-1.5,1.7-2.5,4-2.5c2.6,0,4.2,0.9,4.2,3.3c0,1.6-0.2,2.7-0.2,3.9c0,0.4,0.1,0.6,0.4,0.6
		c0.2,0,0.5-0.1,0.5-0.7v-0.8h1.1v0.7c0,1.7-0.6,2.8-2.1,2.8c-0.9,0-1.7-0.4-1.7-1.9c0-0.4,0-0.8,0.1-1.1h-0.2
		c-0.4,2.1-1.9,3.2-3.5,3.2c-1.7,0-3-0.9-3-2.7c0-1.6,1.5-3,4.4-3c0.5,0,1,0,1.5,0.1C194,68,194,67.7,194,67.4z M192.9,69.1
		c-1.5,0-2.1,0.8-2.1,1.5c0,0.7,0.5,1.1,1.2,1.1c0.8,0,1.8-0.5,1.9-2.5C193.6,69.1,193.2,69.1,192.9,69.1z"/>
	<path class="st0" d="M204.1,65.3c-1.6,0-2.6,1.6-2.6,3.1c0,1.8,1.1,3,2.7,3c0.9,0,1.8-0.4,2.4-1.4l1.5,1.6
		c-0.9,1.5-2.3,2.2-4.2,2.2c-2.9,0-4.8-2.3-4.8-4.9c0-3.1,2.4-5,5-5c1.9,0,3.5,0.8,3.5,2.4c0,1-0.8,1.8-1.8,1.8
		c-1,0-1.7-0.5-1.7-1.6c0-0.5,0.2-1,0.6-1.2C204.5,65.3,204.3,65.3,204.1,65.3z"/>
	<path class="st0" d="M216.8,70.5l1,0.6c-0.8,1.8-2.2,2.7-4.1,2.7c-3,0-5-2.2-5-5c0-3.1,2.5-4.9,5-4.9c3.1,0,4.7,2.1,4.5,5.3h-6.7
		c0.1,1.8,1.3,2.7,2.8,2.7C215.5,72,216.3,71.5,216.8,70.5z M213.8,65.8c-1.2,0-2.1,0.9-2.2,2.1h4.3
		C215.9,66.6,215.1,65.8,213.8,65.8z"/>
</g>
</svg>
