<?xml version="1.0" encoding="utf-8"?>
<!-- Generator: Adobe Illustrator 19.2.1, SVG Export Plug-In . SVG Version: 6.00 Build 0)  -->
<svg version="1.1" id="Layer_1" xmlns="http://www.w3.org/2000/svg" xmlns:xlink="http://www.w3.org/1999/xlink" x="0px" y="0px"
	 viewBox="0 0 240 95" style="enable-background:new 0 0 240 95;" xml:space="preserve">
<style type="text/css">
	.st0{fill:#FFFFFF;}
</style>
<g>
	<rect x="45" y="52.5" class="st0" width="3.1" height="2.5"/>
	<rect x="45" y="55.2" class="st0" width="3.1" height="2.6"/>
	<rect x="48.4" y="55.2" class="st0" width="3.1" height="2.6"/>
	<rect x="45" y="58" class="st0" width="3.1" height="2.5"/>
	<rect x="48.4" y="58" class="st0" width="3.1" height="2.5"/>
	<rect x="45" y="49.8" class="st0" width="1.9" height="2.3"/>
	<rect x="48.4" y="39.8" class="st0" width="2.1" height="2.1"/>
	<rect x="47.2" y="47.3" class="st0" width="2.1" height="2.3"/>
	<rect x="45" y="47.3" class="st0" width="1.9" height="2.3"/>
	<rect x="48.4" y="52.5" class="st0" width="3.1" height="2.5"/>
	<rect x="46.1" y="37.6" class="st0" width="2.1" height="2.1"/>
	<rect x="47.2" y="49.8" class="st0" width="2.1" height="2.3"/>
	<rect x="35.1" y="65" class="st0" width="26.2" height="1.7"/>
	<polygon class="st0" points="61.3,67.2 35.1,67.2 35.1,67.2 35.1,68.8 61.3,68.8 	"/>
	<rect x="35.1" y="69.1" class="st0" width="26.2" height="1.8"/>
	<path class="st0" d="M57.5,37c0-0.4-0.3-0.7-0.7-0.7h-2.6c-0.4,0-0.7,0.3-0.7,0.7c0,0.4,0.4,0.7,0.8,0.7c0.2,0,0.4-0.2,0.4-0.3
		c0-0.1,0.1-0.2,0.2-0.2l0,0c0.1,0,0.2,0.1,0.2,0.2c0,0.3-0.2,0.6-0.6,0.8l-0.2,22.6h2.3l-0.2-22.6c-0.3-0.1-0.5-0.4-0.6-0.8
		c0-0.1,0.1-0.2,0.2-0.2l0,0c0.1,0,0.2,0.1,0.2,0.2c0,0.2,0.2,0.3,0.4,0.3C57.1,37.8,57.5,37.5,57.5,37z"/>
	<rect x="49.5" y="49.8" class="st0" width="2" height="2.3"/>
	<polygon class="st0" points="61.3,63 57.6,63 53.3,63 43.1,63 38.9,63 35.1,63 35.1,64.7 61.3,64.7 	"/>
	<polygon class="st0" points="61.3,72.2 61.3,71.1 35.1,71.1 35.1,72.2 35.1,72.9 61.3,72.9 	"/>
	<path class="st0" d="M42.4,38.2l0.2,22.3c0.3,0.1,0.5,0.4,0.5,0.7s-0.1,0.5-0.3,0.6c0,0,0,0,0.1,0c0.4,0.2,0.5,0.5,0.6,0.8h9.8
		c0.1-0.2,0.2-0.6,0.6-0.8c0,0,0,0,0.1,0c-0.2-0.1-0.3-0.3-0.3-0.6c0-0.3,0.2-0.6,0.5-0.7l0.2-22.3c-0.6-0.1-1.1-0.6-1.1-1.2
		c0-0.3,0.1-0.5,0.3-0.7h-10c0.2,0.2,0.3,0.4,0.3,0.7C43.5,37.7,43,38.2,42.4,38.2z M45.6,37.1h5.3v5.3h-5.3V37.1z M44.5,52.5V52
		v-5.3h7.4V52v0.5V61h-7.4V52.5z"/>
	<rect x="35.1" y="73.1" class="st0" width="26.2" height="1.7"/>
	<rect x="49.5" y="47.3" class="st0" width="2" height="2.3"/>
	<path class="st0" d="M42.3,36.3h-2.6c-0.4,0-0.7,0.3-0.7,0.7c0,0.4,0.4,0.7,0.8,0.7c0.2,0,0.4-0.2,0.4-0.3c0-0.1,0.1-0.2,0.2-0.2
		l0,0c0.1,0,0.2,0.1,0.2,0.2c0,0.3-0.2,0.6-0.6,0.8l-0.2,22.6h2.3l-0.2-22.6c-0.3-0.1-0.5-0.4-0.6-0.8c0-0.1,0.1-0.2,0.2-0.2l0,0
		c0.1,0,0.2,0.1,0.2,0.2c0,0.2,0.2,0.3,0.4,0.3c0.4,0,0.8-0.3,0.8-0.7C43,36.7,42.7,36.3,42.3,36.3z"/>
	<path class="st0" d="M39.4,62.3c-0.2,0.1-0.2,0.2-0.3,0.3h3.7c-0.1-0.1-0.1-0.3-0.3-0.3c-0.4-0.2-0.4-0.6-0.4-0.6
		c0-0.1,0-0.1,0.1-0.2c0.1-0.1,0.1-0.1,0.2-0.1c0.1,0,0.2-0.1,0.2-0.2c0-0.1-0.1-0.2-0.2-0.2h-2.7c-0.1,0-0.2,0.1-0.2,0.2
		c0,0.1,0.1,0.2,0.2,0.2c0.1,0,0.1,0,0.2,0.1c0.1,0.1,0.1,0.1,0.1,0.2C39.8,61.7,39.8,62,39.4,62.3z"/>
	<path class="st0" d="M32.4,62.6h2.2h4c0.1-0.3,0.2-0.6,0.6-0.8c0,0,0,0,0.1,0c-0.2-0.1-0.3-0.3-0.3-0.6c0-0.3,0.2-0.6,0.5-0.7
		l0.2-22.3c-0.6-0.1-1.1-0.6-1.1-1.2c0-0.3,0.1-0.5,0.3-0.7h-6.4c0.2,0.2,0.3,0.4,0.3,0.7c0,0.6-0.5,1.2-1.1,1.2l0.2,22.3
		c0.3,0.1,0.5,0.4,0.5,0.7s-0.1,0.5-0.3,0.6c0,0,0,0,0.1,0C32.2,61.9,32.4,62.3,32.4,62.6z M34.2,46.7h3V61h-3V46.7z"/>
	<rect x="72.5" y="63" class="st0" width="1.3" height="3.6"/>
	<rect x="68.9" y="63" class="st0" width="1.3" height="3.6"/>
	<rect x="70.7" y="63" class="st0" width="1.3" height="3.6"/>
	<rect x="74.3" y="63" class="st0" width="1.3" height="3.6"/>
	<rect x="46.1" y="39.8" class="st0" width="2.1" height="2.1"/>
	<polygon class="st0" points="48.2,22.4 30.9,29.4 65.5,29.4 	"/>
	<rect x="61.8" y="67.2" class="st0" width="13.8" height="4.6"/>
	<rect x="61.8" y="63" class="st0" width="1.3" height="3.6"/>
	<rect x="65.4" y="63" class="st0" width="1.3" height="3.6"/>
	<rect x="67.2" y="63" class="st0" width="1.3" height="3.6"/>
	<rect x="63.6" y="63" class="st0" width="1.3" height="3.6"/>
	<path class="st0" d="M27.7,30.5l0.3,0.6h1h38.4h1l1-1.6l-0.6-0.2l-11.1-4.5l0,0l-9.5-3.9l-8.3,3.4l0,0L27,29.4L27.7,30.5z
		 M48.2,22.1L48.2,22.1l18.5,7.4h-37L48.2,22.1z"/>
	<rect x="34.6" y="52.6" class="st0" width="2.1" height="2.5"/>
	<rect x="34.6" y="49.9" class="st0" width="2.1" height="2.5"/>
	<rect x="34.6" y="47.3" class="st0" width="2.1" height="2.4"/>
	<rect x="29" y="33.7" class="st0" width="38.4" height="2"/>
	<rect x="48.4" y="37.6" class="st0" width="2.1" height="2.1"/>
	<rect x="34.6" y="58.2" class="st0" width="2.1" height="2.4"/>
	<path class="st0" d="M56.9,61.4c0.1,0,0.2-0.1,0.2-0.2s-0.1-0.2-0.2-0.2h-2.7c-0.1,0-0.2,0.1-0.2,0.2c0,0.1,0.1,0.2,0.2,0.2
		c0.1,0,0.1,0,0.2,0.1s0.1,0.1,0.1,0.2c0,0.1-0.1,0.4-0.4,0.6c-0.2,0.1-0.2,0.2-0.3,0.3h3.7c-0.1-0.1-0.1-0.3-0.3-0.3
		c-0.4-0.2-0.4-0.6-0.4-0.6c0-0.1,0-0.1,0.1-0.2C56.7,61.4,56.7,61.4,56.9,61.4z"/>
	<path class="st0" d="M28.5,62.3c-0.2,0.1-0.2,0.2-0.3,0.3H32c-0.1-0.1-0.1-0.3-0.3-0.3c-0.4-0.2-0.4-0.6-0.4-0.6
		c0-0.1,0-0.1,0.1-0.2c0.1-0.1,0.1-0.1,0.2-0.1c0.1,0,0.2-0.1,0.2-0.2c0-0.1-0.1-0.2-0.2-0.2h-2.7c-0.1,0-0.2,0.1-0.2,0.2
		c0,0.1,0.1,0.2,0.2,0.2c0.1,0,0.1,0,0.2,0.1c0.1,0.1,0.1,0.1,0.1,0.2C28.9,61.7,28.9,62,28.5,62.3z"/>
	<rect x="34.6" y="55.4" class="st0" width="2.1" height="2.5"/>
	<path class="st0" d="M64.8,62.3c-0.2,0.1-0.2,0.2-0.3,0.3h3.7c-0.1-0.1-0.1-0.3-0.3-0.3c-0.4-0.2-0.4-0.6-0.4-0.6
		c0-0.1,0-0.1,0.1-0.2c0.1-0.1,0.1-0.1,0.2-0.1c0.1,0,0.2-0.1,0.2-0.2c0-0.1-0.1-0.2-0.2-0.2H65c-0.1,0-0.2,0.1-0.2,0.2
		c0,0.1,0.1,0.2,0.2,0.2c0.1,0,0.1,0,0.2,0.1c0.1,0.1,0.1,0.1,0.1,0.2C65.2,61.7,65.2,62,64.8,62.3z"/>
	<path class="st0" d="M30.7,37.1L30.7,37.1c0.1,0,0.2,0.1,0.2,0.2c0,0.2,0.2,0.3,0.4,0.3c0.4,0,0.8-0.3,0.8-0.7
		c0-0.4-0.3-0.7-0.7-0.7h-2.6c-0.4,0-0.7,0.3-0.7,0.7c0,0.4,0.4,0.7,0.8,0.7c0.2,0,0.4-0.2,0.4-0.3c0-0.1,0.1-0.2,0.2-0.2l0,0
		c0.1,0,0.2,0.1,0.2,0.2c0,0.3-0.2,0.6-0.6,0.8l-0.2,22.6h2.3L31,38.1c-0.3-0.1-0.5-0.4-0.6-0.8C30.4,37.2,30.6,37.1,30.7,37.1z"/>
	<rect x="22.7" y="63" class="st0" width="1.3" height="3.6"/>
	<path class="st0" d="M20.9,62.6h6.9c0.1-0.2,0.2-0.6,0.6-0.8c0,0,0,0,0.1,0c-0.2-0.1-0.3-0.3-0.3-0.6c0-0.3,0.2-0.6,0.5-0.7
		l0.2-22.3c-0.6-0.1-1.1-0.6-1.1-1.2c0-0.6,0.4-1.1,1-1.2V33h-7.7L20.9,62.6L20.9,62.6z M27.1,38.8v5.3h-4.6v-5.3H27.1z M22.3,50.3
		h5V59h-5V50.3z"/>
	<rect x="24.8" y="50.7" class="st0" width="1.9" height="2.4"/>
	<rect x="26.2" y="63" class="st0" width="1.3" height="3.6"/>
	<rect x="22.9" y="39.3" class="st0" width="1.7" height="2.1"/>
	<rect x="20.9" y="63" class="st0" width="1.3" height="3.6"/>
	<rect x="20.9" y="67.2" class="st0" width="13.8" height="4.6"/>
	<rect x="24.8" y="53.3" class="st0" width="1.9" height="2.5"/>
	<rect x="22.7" y="53.3" class="st0" width="1.9" height="2.5"/>
	<rect x="22.7" y="56.1" class="st0" width="1.9" height="2.4"/>
	<rect x="22.7" y="50.7" class="st0" width="1.9" height="2.4"/>
	<rect x="24.8" y="56.1" class="st0" width="1.9" height="2.4"/>
	<rect x="24.5" y="63" class="st0" width="1.3" height="3.6"/>
	<rect x="59.7" y="49.9" class="st0" width="2.1" height="2.5"/>
	<rect x="59.7" y="52.6" class="st0" width="2.1" height="2.5"/>
	<rect x="59.7" y="55.4" class="st0" width="2.1" height="2.5"/>
	<path class="st0" d="M64,62.6c0.1-0.2,0.2-0.6,0.6-0.8c0,0,0,0,0.1,0c-0.2-0.1-0.3-0.3-0.3-0.6c0-0.3,0.2-0.6,0.5-0.7L65,38.2
		c-0.6-0.1-1.1-0.6-1.1-1.2c0-0.3,0.1-0.5,0.3-0.7h-6.4c0.2,0.2,0.3,0.4,0.3,0.7c0,0.6-0.5,1.2-1.1,1.2l0.2,22.3
		c0.3,0.1,0.5,0.4,0.5,0.7s-0.1,0.5-0.3,0.6c0,0,0,0,0.1,0c0.4,0.2,0.5,0.5,0.6,0.8H62H64z M59.3,46.7h3V61h-3V46.7z"/>
	<rect x="59.7" y="47.3" class="st0" width="2.1" height="2.4"/>
	<rect x="59.7" y="58.2" class="st0" width="2.1" height="2.4"/>
	<rect x="29.8" y="63" class="st0" width="1.3" height="3.6"/>
	<rect x="31.6" y="63" class="st0" width="1.3" height="3.6"/>
	<rect x="33.3" y="63" class="st0" width="1.3" height="3.6"/>
	<rect x="28" y="63" class="st0" width="1.3" height="3.6"/>
	<rect x="71.9" y="56.1" class="st0" width="1.9" height="2.4"/>
	<rect x="71.9" y="50.7" class="st0" width="1.9" height="2.4"/>
	<rect x="69.7" y="53.3" class="st0" width="1.9" height="2.5"/>
	<rect x="69.7" y="56.1" class="st0" width="1.9" height="2.4"/>
	<rect x="71.9" y="53.3" class="st0" width="1.9" height="2.5"/>
	<rect x="29" y="31.5" class="st0" width="38.4" height="2"/>
	<rect x="69.7" y="50.7" class="st0" width="1.9" height="2.4"/>
	<rect x="69.9" y="41.6" class="st0" width="1.7" height="2.1"/>
	<path class="st0" d="M65.1,37.8c0.2,0,0.4-0.2,0.4-0.3c0-0.1,0.1-0.2,0.2-0.2l0,0c0.1,0,0.2,0.1,0.2,0.2c0,0.3-0.2,0.6-0.6,0.8
		l-0.2,22.6h2.3l-0.2-22.6c-0.3-0.1-0.5-0.4-0.6-0.8c0-0.1,0.1-0.2,0.2-0.2l0,0c0.1,0,0.2,0.1,0.2,0.2c0,0.2,0.2,0.3,0.4,0.3
		c0.4,0.1,0.8-0.3,0.8-0.7c0-0.4-0.3-0.7-0.7-0.7H65c-0.4,0-0.7,0.3-0.7,0.7C64.4,37.5,64.7,37.8,65.1,37.8z"/>
	<rect x="69.9" y="39.3" class="st0" width="1.7" height="2.1"/>
	<rect x="71.9" y="41.6" class="st0" width="1.7" height="2.1"/>
	<rect x="71.9" y="39.3" class="st0" width="1.7" height="2.1"/>
	<polygon class="st0" points="20.9,32.8 28.5,32.8 28.5,31.5 28.3,31.5 27.8,31.5 20.9,31.5 	"/>
	<polygon class="st0" points="75.6,24.7 59.1,24.7 70.1,29.1 70,29.4 69,31.1 75.6,31.1 	"/>
	<rect x="22.9" y="41.6" class="st0" width="1.7" height="2.1"/>
	<rect x="24.8" y="39.3" class="st0" width="1.7" height="2.1"/>
	<polygon class="st0" points="20.9,31.1 27.5,31.1 27.1,30.4 26.4,29.1 27.2,28.8 37.4,24.7 20.9,24.7 	"/>
	<path class="st0" d="M68.7,62.6h6.9V33h-7.7v2.8c0.6,0.1,1,0.6,1,1.2c0,0.6-0.5,1.2-1.1,1.2L68,60.5c0.3,0.1,0.5,0.4,0.5,0.7
		s-0.1,0.5-0.3,0.6c0,0,0,0,0.1,0C68.6,61.9,68.7,62.3,68.7,62.6z M74,38.8v5.3h-4.6v-5.3H74z M69.2,50.3h5V59h-5V50.3z"/>
	<rect x="24.8" y="41.6" class="st0" width="1.7" height="2.1"/>
	<polygon class="st0" points="75.6,31.5 68.7,31.5 68.2,31.5 67.9,31.5 67.9,32.8 75.6,32.8 	"/>
</g>
<g>
	<path class="st0" d="M97.7,53.4h2.1v2.2h-7.1v-2.2h2.1v-8.3h-2.1v-2.2h7.1v2.2h-2.1V48h5.5v-2.9h-2.1v-2.2h7.1v2.2h-2.2v8.3h2.2
		v2.2h-7.1v-2.2h2.1v-3.3h-5.5V53.4z"/>
	<path class="st0" d="M115.4,53.4v2.2h-5.7v-2.2h1.7v-4.8h-1.7v-2.2h4.3v7H115.4z M112.8,45.6c-0.9,0-1.5-0.7-1.5-1.5
		c0-0.8,0.7-1.5,1.5-1.5c0.8,0,1.5,0.7,1.5,1.5C114.3,45,113.6,45.6,112.8,45.6z"/>
	<path class="st0" d="M122.4,53.4v2.2h-5.7v-2.2h1.7v-8.3h-1.7v-2.2h4.3v10.5H122.4z"/>
	<path class="st0" d="M129.3,53.4v2.2h-5.7v-2.2h1.7v-8.3h-1.7v-2.2h4.3v10.5H129.3z"/>
	<path class="st0" d="M133.8,47.4c-0.7,0-1,0.3-1,0.9c0,2.2,6.1,0.8,6.1,4.7c0,2.1-1.8,2.9-3.6,2.9c-1.3,0-2.4-0.6-2.8-2h-0.1
		l0.1,1.8h-2v-3.4h2.4c0,1.5,0.7,2.3,2.2,2.3c0.8,0,1.3-0.4,1.3-1c0-2.2-6.1-0.8-6.1-4.7c0-1.8,1.6-2.8,3.2-2.8
		c1.5,0,2.6,0.7,2.7,2.1h0.1c0-0.6,0-1.2,0-1.8h2v3.3h-2.4C135.8,48,135,47.4,133.8,47.4z"/>
	<path class="st0" d="M140.5,45.1h-1.7v-2.2h4.3v0.6c0,1-0.1,3.3-0.3,4.7h0.1c0.6-1.2,1.7-2.1,3.4-2.1c2.4,0,4.3,2,4.3,4.9
		c0,2.7-2.1,4.9-4.5,4.9c-2.2,0-3.3-1-3.8-2.3h-0.1c-0.2,0.5-0.3,1.3-0.3,2.3h-1.4V45.1z M143.1,51c0,1.9,0.9,3.1,2.4,3.1
		c1.4,0,2.2-1.2,2.2-3.1c0-1.8-0.9-2.9-2.3-2.9C143.9,48.1,143.1,49.1,143.1,51z"/>
	<path class="st0" d="M157.1,55.9c-2.9,0-5.2-2.2-5.2-5c0-2.9,2.3-4.9,5.2-4.9c2.9,0,5.2,2.1,5.2,4.9
		C162.3,53.7,160,55.9,157.1,55.9z M157.1,54.1c1.7,0,2.1-0.5,2.1-3.1c0-2.3-0.4-3.1-2.1-3.1c-1.6,0-2.2,0.6-2.2,3.1
		C155,53.5,155.4,54.1,157.1,54.1z"/>
	<path class="st0" d="M170,46c1.5,0,2.3,0.9,2.3,2.1c0,1.1-0.7,1.9-1.8,1.9c-1,0-1.6-0.7-1.6-1.5c0-0.5,0.2-0.8,0.5-1
		c-0.2,0-0.3,0.1-0.6,0.1c-0.7,0.3-1.4,1.3-1.4,2.8v2.9h2.2v2.2h-6.4v-2.2h1.6v-4.8h-1.7v-2.2h3.8c0,0.7-0.1,2-0.2,2.9h0.2
		C167,47.4,168.4,46,170,46z"/>
	<path class="st0" d="M177.9,55.9c-2.9,0-5.2-2.2-5.2-5c0-2.9,2.3-4.9,5.2-4.9c2.9,0,5.2,2.1,5.2,4.9
		C183.1,53.7,180.8,55.9,177.9,55.9z M177.9,54.1c1.7,0,2.1-0.5,2.1-3.1c0-2.3-0.4-3.1-2.1-3.1c-1.6,0-2.2,0.6-2.2,3.1
		C175.7,53.5,176.2,54.1,177.9,54.1z"/>
	<path class="st0" d="M188.4,55.9c-2,0-3.1-1.1-3.1-3.2v-4.1h-1.5v-2.2h4.1v5.3c0,1.5,0.5,1.9,1.5,1.9c1.2,0,2.1-0.6,2.1-2.1v-2.8
		h-2.1v-2.2h4.7v7h1.5v2.2h-3.4c0-0.8,0.2-2.6,0.3-3.3h-0.2C191.7,54.8,189.9,55.9,188.4,55.9z"/>
	<path class="st0" d="M203.4,45.6c-0.8,0-1.3-0.5-1.3-1.3c0-0.8,0.6-1.6,1.7-1.6c1.5,0,2.2,1.1,2.2,2.1c0,1-0.6,2.1-1.9,2.4
		c0.7,0.5,1.2,1.4,1.2,2.6c0,2.1-1.5,3.3-4,3.3c-0.9,0-1.7-0.2-2.3-0.5c-0.6,0-1,0.4-1,0.8c0,0.4,0.3,0.6,0.8,0.6
		c1.4,0,2.5-0.1,4.3-0.1c1.8,0,3,0.8,3,2.2c0,1.8-1.8,3.5-5.3,3.5c-3.2,0-4.5-1-4.5-2.2c0-1.1,0.9-1.7,1.8-1.9
		c-1.1,0-1.7-0.6-1.7-1.3c0-0.9,0.8-1.7,1.7-1.9c-0.7-0.5-1.3-1.3-1.3-2.4c0-2,1.8-3.5,4.2-3.5c1,0,1.6,0.3,2.3,0.3
		c0.8,0,1.3-0.6,1.3-1.2c0-0.1,0-0.3-0.1-0.4C204.3,45.3,203.9,45.6,203.4,45.6z M198.4,56.4c0,0.6,0.9,0.9,2.7,0.9
		c1.6,0,2.4-0.4,2.4-1c0-0.4-0.3-0.7-1.4-0.7h-2.4C198.6,55.6,198.4,56,198.4,56.4z M201.4,51.7c1.1,0,1.8-0.7,1.8-1.8
		c0-1.2-0.7-1.9-1.8-1.9c-1.1,0-1.8,0.7-1.8,1.9S200.3,51.7,201.4,51.7z"/>
	<path class="st0" d="M210.9,50.1c0.5-2.9,2.4-4,3.9-4c1.9,0,2.8,1.2,2.8,3.2v4.1h1.2v2.2h-5.3v-2.2h1.5v-2.9c0-1.6-0.5-2.1-1.5-2.1
		c-1.1,0-2.1,0.8-2.1,2.6v2.4h1.4v2.2h-5.7v-2.2h1.7v-8.3h-1.7v-2.2h4.3v0.4c0,1.8-0.4,4.9-0.7,6.8H210.9z"/>
	<path class="st0" d="M102.9,63.9l-0.1-2.2h2.3v5h-2.4c-0.1-1.8-1.5-2.8-3.1-2.8c-1.8,0-3.6,1.3-3.6,4.2c0,2.8,1.9,4.3,4,4.3
		c1.4,0,2.6-0.7,3.3-2.2l2,1.3c-0.6,1.9-2.6,3.4-5.3,3.4c-4.6,0-7.1-2.7-7.1-6.7c0-4.6,3.3-6.7,6.1-6.7c1.7,0,3.3,0.8,3.8,2.3H102.9
		z"/>
	<path class="st0" d="M112.3,68.5c0-1.6-0.7-2.2-1.9-2.2c-0.6,0-1.1,0.1-1.5,0.4c0.7,0.1,1,0.6,1,1.2c0,0.8-0.7,1.3-1.5,1.3
		c-0.7,0-1.5-0.5-1.5-1.5c0-1.5,1.7-2.5,4-2.5c2.6,0,4.2,0.9,4.2,3.3c0,1.6-0.2,2.7-0.2,3.9c0,0.4,0.1,0.6,0.4,0.6s0.5-0.1,0.5-0.7
		v-0.8h1.1v0.7c0,1.7-0.6,2.8-2.1,2.8c-0.9,0-1.7-0.4-1.7-1.9c0-0.4,0-0.8,0.1-1.1h-0.2c-0.4,2.1-1.9,3.2-3.5,3.2
		c-1.7,0-3-0.9-3-2.7c0-1.6,1.5-3,4.4-3c0.5,0,1,0,1.5,0.1C112.3,69.1,112.3,68.8,112.3,68.5z M111.2,70.2c-1.5,0-2.1,0.8-2.1,1.5
		c0,0.7,0.5,1.1,1.2,1.1c0.8,0,1.8-0.5,1.9-2.5C111.9,70.3,111.5,70.2,111.2,70.2z"/>
	<path class="st0" d="M121.2,66.5c-0.7,0-1,0.3-1,0.9c0,2.2,6.1,0.8,6.1,4.7c0,2.1-1.8,2.9-3.6,2.9c-1.3,0-2.4-0.6-2.8-2h-0.1
		l0.1,1.8h-2v-3.4h2.4c0,1.5,0.7,2.3,2.2,2.3c0.8,0,1.3-0.4,1.3-1c0-2.2-6.1-0.8-6.1-4.7c0-1.8,1.6-2.8,3.2-2.8
		c1.5,0,2.6,0.7,2.7,2.1h0.1c0-0.6,0-1.2,0-1.8h2v3.3h-2.4C123.2,67.1,122.3,66.5,121.2,66.5z"/>
	<path class="st0" d="M128.8,72.5v-4.7h-1.9v-1.2c2.1,0,3.4-0.9,3.3-3.9h1.2v3h3.6v2.2h-3.6V72c0,0.6,0.5,1,1.1,1
		c0.6,0,1.1-0.3,1.1-1v-1.3h1.4v1.6c0,1.9-1.6,2.7-3.1,2.7S128.8,74.2,128.8,72.5z"/>
	<path class="st0" d="M141.6,72.5v2.2h-5.7v-2.2h1.7v-8.3h-1.7v-2.2h4.3v10.5H141.6z"/>
	<path class="st0" d="M150.4,71.6l1,0.6c-0.8,1.8-2.2,2.7-4.1,2.7c-3,0-5-2.2-5-5c0-3.1,2.5-4.9,5-4.9c3.1,0,4.7,2.1,4.5,5.3h-6.7
		c0.1,1.8,1.3,2.7,2.8,2.7C149.2,73.1,150,72.6,150.4,71.6z M147.5,66.9c-1.2,0-2.1,0.9-2.2,2.1h4.3
		C149.6,67.7,148.8,66.9,147.5,66.9z"/>
</g>
</svg>
