<?xml version="1.0" encoding="utf-8"?>
<!-- Generator: Adobe Illustrator 20.0.0, SVG Export Plug-In . SVG Version: 6.00 Build 0)  -->
<!DOCTYPE svg PUBLIC "-//W3C//DTD SVG 1.1//EN" "http://www.w3.org/Graphics/SVG/1.1/DTD/svg11.dtd">
<svg version="1.1" id="HRP" xmlns="http://www.w3.org/2000/svg" xmlns:xlink="http://www.w3.org/1999/xlink" x="0px" y="0px"
	 viewBox="0 0 189.9 220" style="enable-background:new 0 0 189.9 220;" xml:space="preserve">
<style type="text/css">
	.st0{fill:#FFFFFF;}
</style>
<g>
	<g>
		<path class="st0" d="M94.9,81.6L81.6,96.2l13.3,14.6l13.3-14.6L94.9,81.6z M90.9,31.5c-0.1,3.4-1.2,7.2-6.3,9.3V42h20.7v-1.2
			c-5.1-2-6.2-5.9-6.3-9.3c3.4,0.2,7.7,1.2,9.8,6.3h1.2V17.1h-1.2c-2,5.1-6.3,6.2-9.8,6.3c0.1-3.4,1.2-7.1,6.3-9.2V13H84.6v1.2
			c5.1,2,6.2,5.8,6.3,9.2c-3.4-0.1-7.7-1.2-9.8-6.3h-1.2v20.7h1.2C83.2,32.8,87.5,31.7,90.9,31.5z M94.9,23c2.4,0,4.4,2,4.4,4.4
			s-2,4.4-4.4,4.4c-2.4,0-4.4-2-4.4-4.4C90.5,25,92.5,23,94.9,23z M17.2,111.5c0-2.5-2-4.5-4.5-4.5c-2.5,0-4.5,2-4.5,4.5
			c0,2.5,2,4.5,4.5,4.5C15.2,116.1,17.2,114,17.2,111.5z M17.5,118.7c-2.5,0-4.5,2-4.5,4.5s2,4.5,4.5,4.5s4.5-2,4.5-4.5
			S20,118.7,17.5,118.7z M41.6,82.5c12.6,0,20.3,9.7,29,9.7c3.9,0,8.3-2.9,8.4-7.3c0-2.5-2-4.5-4.5-4.5s-4.5,2-4.5,4.5
			c0,2.1,1.5,3.9,3.4,4.4c-0.4,0.2-0.9,0.2-1.4,0.2c-8.3,0-17-10.1-30.6-10.1c-14.2,0-23.2,11.2-23.2,24c0,10.1,6.1,18.1,9.6,24.6
			c-0.3-0.1-0.7-0.1-1-0.1c-2.5,0-4.5,2-4.5,4.5s2,4.5,4.5,4.5c2.5,0,4.5-2,4.5-4.5c0-7.5-9.9-16-9.9-28.8
			C21.4,91.8,29.1,82.5,41.6,82.5z M12,103.2c2.5,0,4.5-2,4.5-4.5s-2-4.5-4.5-4.5c-2.5,0-4.5,2-4.5,4.5S9.5,103.2,12,103.2z
			 M16.6,90.8c2.5,0,4.5-2,4.5-4.5s-2-4.5-4.5-4.5c-2.5,0-4.5,2-4.5,4.5C12.1,88.8,14.1,90.8,16.6,90.8z M25.5,82
			c2.5,0,4.5-2,4.5-4.5c0-2.5-2-4.5-4.5-4.5c-2.5,0-4.5,2-4.5,4.5C20.9,79.9,23,82,25.5,82z M37.7,77.6c2.5,0,4.5-2,4.5-4.5
			c0-2.5-2-4.5-4.5-4.5c-2.5,0-4.5,2-4.5,4.5C33.2,75.6,35.2,77.6,37.7,77.6z M50.5,78.6c2.5,0,4.5-2,4.5-4.5s-2-4.5-4.5-4.5
			c-2.5,0-4.5,2-4.5,4.5S48,78.6,50.5,78.6z M62.6,83.7c2.5,0,4.5-2,4.5-4.5s-2-4.5-4.5-4.5c-2.5,0-4.5,2-4.5,4.5
			C58.1,81.6,60.2,83.7,62.6,83.7z M177.2,107c-2.5,0-4.5,2-4.5,4.5c0,2.5,2,4.5,4.5,4.5c2.5,0,4.5-2,4.5-4.5S179.7,107,177.2,107z
			 M172.4,118.7c-2.5,0-4.5,2-4.5,4.5c0,2.5,2,4.5,4.5,4.5c2.5,0,4.5-2,4.5-4.5S174.8,118.7,172.4,118.7z M163.1,127.9
			c-0.4,0-0.7,0-1,0.1c3.5-6.4,9.6-14.5,9.6-24.6c0-12.8-9-24-23.2-24c-13.6,0-22.2,10.1-30.6,10.1c-0.5,0-0.9-0.1-1.4-0.2
			c2-0.5,3.4-2.3,3.4-4.4c0-2.5-2-4.5-4.5-4.5c-2.5,0-4.5,2-4.5,4.5c0.1,4.4,4.5,7.3,8.4,7.3c8.7,0,16.4-9.7,29-9.7
			c12.5,0,20.2,9.3,20.2,21.1c0,12.8-9.9,21.4-9.9,28.8c0,2.5,2,4.5,4.5,4.5c2.5,0,4.5-2,4.5-4.5
			C167.6,129.9,165.6,127.9,163.1,127.9z M177.9,94.2c-2.5,0-4.5,2-4.5,4.5s2,4.5,4.5,4.5s4.5-2,4.5-4.5
			C182.4,96.2,180.3,94.2,177.9,94.2z M173.3,90.8c2.5,0,4.5-2,4.5-4.5s-2-4.5-4.5-4.5c-2.5,0-4.5,2-4.5,4.5S170.8,90.8,173.3,90.8z
			 M164.4,82c2.5,0,4.5-2,4.5-4.5c0-2.5-2-4.5-4.5-4.5c-2.5,0-4.5,2-4.5,4.5C159.9,79.9,161.9,82,164.4,82z M152.2,77.6
			c2.5,0,4.5-2,4.5-4.5c0-2.5-2-4.5-4.5-4.5c-2.5,0-4.5,2-4.5,4.5C147.7,75.6,149.7,77.6,152.2,77.6z M139.4,78.6
			c2.5,0,4.5-2,4.5-4.5s-2-4.5-4.5-4.5c-2.5,0-4.5,2-4.5,4.5S136.9,78.6,139.4,78.6z M127.2,83.7c2.5,0,4.5-2,4.5-4.5
			s-2-4.5-4.5-4.5c-2.5,0-4.5,2-4.5,4.5C122.7,81.6,124.8,83.7,127.2,83.7z M94.9,77.2c8,0,14.6-6.3,15.1-14.2H79.8
			C80.3,71,86.9,77.2,94.9,77.2z M95.9,47v14.1h14.2C109.6,53.5,103.5,47.4,95.9,47z M94,47c-7.6,0.5-13.7,6.6-14.2,14.1H94V47z
			 M94.9,150.4c-5.5,3.1-11.1,6.8-11.1,11.4v17.8H106v-17.8C106,157.1,100.5,153.4,94.9,150.4z M72.6,156.8
			c-2.4,1.4-3.9,3.5-3.9,4.4v10.1h7.9v-10.1C76.5,160.3,74.9,158.2,72.6,156.8z M152.7,110.5c-0.1-1-0.3-2-0.8-2.9
			c-0.8-1.2-2-2.1-3.9-2.9c-1.9-0.8-2.2-3.3-2.4-4.9l-0.1-0.6l0.4-0.3c0.7-0.4,1.1-1.2,1.1-2c0-0.9-0.5-1.7-1.3-2.1l-0.4-0.2v-1.1
			h-2.3v1.1l-0.4,0.2c-0.8,0.4-1.3,1.2-1.3,2.1c0,0.8,0.4,1.6,1.1,2l0.4,0.3l-0.1,0.5c-0.2,1.6-0.5,4.1-2.4,5
			c-1.9,0.8-3.1,1.7-3.9,2.9c-0.6,0.9-0.7,1.8-0.9,2.9l0,0.4l-2.6,1.2v1.2h22.5v-1.2l-2.6-1.2L152.7,110.5z M63,179.6h18.9v-17.8
			c0-0.6,0.1-1.1,0.2-1.6V115H63V179.6z M70.4,122.8c0-1,1-1.9,2.1-1.9c1.1,0,2.1,0.9,2.1,1.9v8.8h-4.3V122.8z M70.4,139.6
			c0-1,1-1.9,2.1-1.9c1.1,0,2.1,0.9,2.1,1.9v8.8h-4.3V139.6z M67,161.2c0-1.9,2.7-4.7,5.1-6l0.4-0.2l0.4,0.2c2.5,1.4,5.1,4.1,5.1,6
			v11.7H67C67,172.9,67,161.2,67,161.2z M106.2,130H83.7v26.6c2.7-3.9,7.9-6.7,10.8-8.3l0.5-0.3l0.5,0.3c2.9,1.6,8.1,4.4,10.8,8.3
			L106.2,130L106.2,130z M102.1,145.1H87.8v-10.9h14.4L102.1,145.1L102.1,145.1z M107.8,106v7.4h19.1V106h-5.5v4h-7.8v-4H107.8z
			 M36.9,183.8c4.1,3.2,9.1,4.9,14.3,4.9c5.1,0,9.9-1.6,14-4.6l0.6-0.4l0.6,0.4c4.1,3,8.9,4.6,14,4.6c5.1,0,9.9-1.6,14-4.6l0.6-0.4
			l0.6,0.4c4.1,3,8.9,4.6,14,4.6c5.1,0,9.9-1.6,14-4.6l0.6-0.4l0.6,0.4c4.1,3,8.9,4.6,14,4.6c5.3,0,10.2-1.7,14.3-4.9v-2.6h-116
			V183.8z M135.2,115v64.6h17.7V115H135.2z M146.6,172.1h-5v-10.3c0-1.2,1.2-2.3,2.5-2.3c1.3,0,2.5,1.1,2.5,2.3V172.1z M147.1,133.4
			H145v11.4c0.5,0.3,0.8,0.8,0.8,1.4c0,1-0.8,1.7-1.7,1.7c-1,0-1.7-0.8-1.7-1.7c0-0.6,0.3-1.1,0.8-1.4v-11.4h-2.1v-1.2h2.1v-10.4
			h1.9v10.4h2.1L147.1,133.4L147.1,133.4z M57,112.2l-2.6-1.2l0-0.5c-0.1-1-0.3-2-0.8-2.9c-0.8-1.2-2-2.1-3.9-2.9
			c-1.9-0.8-2.2-3.3-2.4-4.9l-0.1-0.6l0.4-0.3c0.7-0.4,1.1-1.2,1.1-2c0-0.9-0.5-1.7-1.3-2.1L47,94.7v-1.1h-2.3v1.1l-0.5,0.2
			c-0.8,0.4-1.3,1.2-1.3,2.1c0,0.8,0.4,1.6,1.1,2l0.4,0.3l-0.1,0.6c-0.2,1.6-0.5,4.1-2.4,4.9c-1.9,0.8-3.1,1.7-3.9,2.9
			c-0.6,0.9-0.7,1.8-0.8,2.9l0,0.4l-2.6,1.2v1.2H57L57,112.2L57,112.2z M100.6,135.8H89.3v7.7h11.2V135.8z M56.2,179.6h5.2V130h-5.2
			C56.2,130,56.2,179.6,56.2,179.6z M106.2,121.6h-7.2v4.4h-8v-4.4h-7.2v6.8h22.5V121.6z M82.1,106h-5.8v4h-7.8v-4H63v7.4h19.1V106z
			 M126.9,179.6V115h-19.1v45.2c0.1,0.5,0.2,1.1,0.2,1.6v17.8H126.9z M115.2,122.8c0-1,1-1.9,2.1-1.9c1.2,0,2.1,0.9,2.1,1.9v8.8
			h-4.3V122.8z M115.2,139.6c0-1,1-1.9,2.1-1.9c1.2,0,2.1,0.9,2.1,1.9v8.8h-4.3V139.6z M111.8,161.2c0-1.9,2.7-4.7,5.1-6l0.4-0.2
			l0.4,0.2c2.5,1.4,5.1,4.1,5.1,6v11.7h-11V161.2z M128.5,130v49.6h5.2V130H128.5z M124,186.1c-4.3,3-9.3,4.6-14.5,4.6
			c-5.3,0-10.3-1.6-14.5-4.6c-4.3,3-9.3,4.6-14.5,4.6s-10.3-1.6-14.5-4.6c-4.3,3-9.3,4.6-14.6,4.6c-5.2,0-10.1-1.5-14.3-4.5V203h116
			v-16.8c-4.2,2.9-9.2,4.5-14.3,4.5C133.3,190.7,128.3,189.1,124,186.1z M73.7,196.4H55.8V196c3-0.7,8.6-2.7,10.1-3.9
			c1,0.9,3.3,2.7,7.8,3.9V196.4z M102.8,196.4H84.9V196c3-0.7,8.6-2.7,10.1-3.9c1,0.9,3.3,2.7,7.8,3.9L102.8,196.4L102.8,196.4z
			 M131.8,196.4h-17.9V196c3-0.7,8.6-2.7,10.1-3.9c1,0.9,3.3,2.7,7.8,3.9V196.4z M117.3,156.8c-2.4,1.4-3.9,3.5-3.9,4.4v10.1h7.9
			v-10.1C121.3,160.3,119.7,158.2,117.3,156.8z M54.6,179.6V115H36.9v64.6H54.6z M48.3,172.1h-5v-10.3c0-1.2,1.2-2.3,2.5-2.3
			c1.3,0,2.5,1.1,2.5,2.3V172.1z M42.8,132.2h2.1v-10.4h1.9v10.4h2.1v1.2h-2.1v11.4c0.5,0.3,0.8,0.8,0.8,1.4c0,1-0.8,1.7-1.7,1.7
			c-1,0-1.7-0.8-1.7-1.7c0-0.6,0.3-1.1,0.8-1.4v-11.4h-2.1L42.8,132.2L42.8,132.2z"/>
	</g>
</g>
</svg>
