<?xml version="1.0" encoding="utf-8"?>
<!-- Generator: Adobe Illustrator 19.2.1, SVG Export Plug-In . SVG Version: 6.00 Build 0)  -->
<svg version="1.1" id="Layer_1" xmlns="http://www.w3.org/2000/svg" xmlns:xlink="http://www.w3.org/1999/xlink" x="0px" y="0px"
	 viewBox="0 0 240 95" style="enable-background:new 0 0 240 95;" xml:space="preserve">
<style type="text/css">
	.st0{fill:#FFFFFF;}
</style>
<g>
	<path class="st0" d="M94.7,53.9h2.1v2.2h-7.1v-2.2h2.1v-8.3h-2.1v-2.2h7.1v2.2h-2.1v2.9h5.5v-2.9h-2.1v-2.2h7.1v2.2h-2.2v8.3h2.2
		v2.2h-7.1v-2.2h2.1v-3.3h-5.5V53.9z"/>
	<path class="st0" d="M112.4,53.9v2.2h-5.7v-2.2h1.7v-4.8h-1.7V47h4.3v7H112.4z M109.8,46.2c-0.9,0-1.5-0.7-1.5-1.5
		c0-0.8,0.7-1.5,1.5-1.5c0.8,0,1.5,0.7,1.5,1.5C111.3,45.5,110.6,46.2,109.8,46.2z"/>
	<path class="st0" d="M117,48c-0.7,0-1,0.3-1,0.9c0,2.2,6.1,0.8,6.1,4.7c0,2.1-1.8,2.9-3.6,2.9c-1.3,0-2.4-0.6-2.8-2h-0.1l0.1,1.8
		h-2v-3.4h2.4c0,1.5,0.7,2.3,2.2,2.3c0.8,0,1.3-0.4,1.3-1c0-2.2-6.1-0.8-6.1-4.7c0-1.8,1.6-2.8,3.2-2.8c1.5,0,2.6,0.7,2.7,2.1h0.1
		c0-0.6,0-1.2,0-1.8h2v3.3H119C119,48.5,118.1,48,117,48z"/>
	<path class="st0" d="M124.5,53.9v-4.7h-1.9v-1.2c2.1,0,3.4-0.9,3.3-3.9h1.2v3h3.6v2.2h-3.6v4.3c0,0.6,0.5,1,1.1,1
		c0.6,0,1.1-0.3,1.1-1v-1.3h1.4v1.6c0,1.9-1.6,2.7-3.1,2.7S124.5,55.6,124.5,53.9z"/>
	<path class="st0" d="M137,56.4c-2.9,0-5.2-2.2-5.2-5c0-2.9,2.3-4.9,5.2-4.9c2.9,0,5.2,2.1,5.2,4.9C142.2,54.2,139.9,56.4,137,56.4z
		 M137,54.7c1.7,0,2.1-0.5,2.1-3.1c0-2.3-0.4-3.1-2.1-3.1c-1.6,0-2.2,0.6-2.2,3.1C134.8,54,135.3,54.7,137,54.7z"/>
	<path class="st0" d="M149.9,46.6c1.5,0,2.3,0.9,2.3,2.1c0,1.1-0.7,1.9-1.8,1.9c-1,0-1.6-0.7-1.6-1.5c0-0.5,0.2-0.8,0.5-1
		c-0.2,0-0.3,0.1-0.6,0.1c-0.7,0.3-1.4,1.3-1.4,2.8v2.9h2.2v2.2H143v-2.2h1.6v-4.8h-1.7V47h3.8c0,0.7-0.1,2-0.2,2.9h0.2
		C146.9,47.9,148.3,46.6,149.9,46.6z"/>
	<path class="st0" d="M158.8,53.9v2.2H153v-2.2h1.7v-4.8H153V47h4.3v7H158.8z M156.1,46.2c-0.9,0-1.5-0.7-1.5-1.5
		c0-0.8,0.7-1.5,1.5-1.5c0.8,0,1.5,0.7,1.5,1.5C157.6,45.5,156.9,46.2,156.1,46.2z"/>
	<path class="st0" d="M164.5,47.9c-1.6,0-2.6,1.6-2.6,3.1c0,1.8,1.1,3,2.7,3c0.9,0,1.8-0.4,2.4-1.4l1.5,1.6
		c-0.9,1.5-2.3,2.2-4.2,2.2c-2.9,0-4.8-2.3-4.8-4.9c0-3.1,2.4-5,5-5c1.9,0,3.5,0.8,3.5,2.4c0,1-0.8,1.8-1.8,1.8
		c-1,0-1.7-0.5-1.7-1.6c0-0.5,0.2-1,0.6-1.2C164.9,47.9,164.8,47.9,164.5,47.9z"/>
	<path class="st0" d="M98.4,71.6c0-0.9-0.5-1.7-2-1.7h-1.7V73h1.9v2.2h-7V73h2.1v-8.3h-2.1v-2.2h8c3,0,4.6,1.6,4.6,3.4
		c0,1.6-1.2,3.1-3.9,3.1v0.2c2.1,0,2.8,1,2.8,2.4c0,0.9-0.1,1.4-0.1,1.8c0,0.3,0.2,0.4,0.4,0.4c0.3,0,0.6-0.2,0.6-0.8v-1.3h1.3v1.3
		c0,1.7-1.3,2.6-2.9,2.6c-1.3,0-2.3-0.6-2.3-2.1C98.3,72.8,98.4,72.3,98.4,71.6z M94.7,64.7v3.4h1.8c2.1,0,2.7-0.7,2.7-1.7
		c0-0.9-0.6-1.7-2.2-1.7H94.7z"/>
	<path class="st0" d="M109.6,75.6c-2.9,0-5.2-2.2-5.2-5c0-2.9,2.3-4.9,5.2-4.9c2.9,0,5.2,2.1,5.2,4.9
		C114.7,73.3,112.5,75.6,109.6,75.6z M109.6,73.8c1.7,0,2.1-0.5,2.1-3.1c0-2.3-0.4-3.1-2.1-3.1c-1.6,0-2.2,0.6-2.2,3.1
		C107.4,73.1,107.9,73.8,109.6,73.8z"/>
	<path class="st0" d="M114.7,76.5c0-1.1,0.6-2,1.7-2c0.9,0,1.6,0.7,1.6,1.6c0,1-1,1.7-2,1.5c0.3,0.3,0.7,0.5,1.3,0.5
		c1.1,0,1.9-0.7,2.2-3.1l-3.4-6.8h-1.1v-2.2h5.3v2.2h-1.3c0.7,1.5,1.3,3.2,1.8,4.6c0.5-1.4,1.1-3.1,1.7-4.6h-1.3v-2.2h4.6v2.2h-1.1
		l-3.8,8c-0.9,1.9-2.2,2.7-3.6,2.7C116,79,114.7,78.2,114.7,76.5z"/>
	<path class="st0" d="M132.3,69.1c0-1.6-0.7-2.2-1.9-2.2c-0.6,0-1.1,0.1-1.5,0.4c0.7,0.1,1,0.6,1,1.2c0,0.8-0.7,1.3-1.5,1.3
		c-0.7,0-1.5-0.5-1.5-1.5c0-1.5,1.7-2.5,4-2.5c2.6,0,4.2,0.9,4.2,3.3c0,1.6-0.2,2.7-0.2,3.9c0,0.4,0.1,0.6,0.4,0.6
		c0.2,0,0.5-0.1,0.5-0.7v-0.8h1.1v0.7c0,1.7-0.6,2.8-2.1,2.8c-0.9,0-1.7-0.4-1.7-1.9c0-0.4,0-0.8,0.1-1.1h-0.2
		c-0.4,2.1-1.9,3.2-3.5,3.2c-1.7,0-3-0.9-3-2.7c0-1.6,1.5-3,4.4-3c0.5,0,1,0,1.5,0.1C132.3,69.7,132.3,69.4,132.3,69.1z M131.2,70.8
		c-1.5,0-2.1,0.8-2.1,1.5c0,0.7,0.5,1.1,1.2,1.1c0.8,0,1.8-0.5,1.9-2.5C131.9,70.8,131.5,70.8,131.2,70.8z"/>
	<path class="st0" d="M143.6,73v2.2h-5.7V73h1.7v-8.3h-1.7v-2.2h4.3V73H143.6z"/>
	<path class="st0" d="M148.8,75.2V73h2.1v-8.3h-2.1v-2.2h7.7c2.7,0,5.1,1.4,5.1,4c0,2.1-1.7,4-5.3,4h-2.5V73h2.3v2.2H148.8z
		 M153.9,64.7v3.7h2.1c1.7,0,2.5-0.8,2.5-1.9c0-1-0.6-1.9-2.2-1.9H153.9z"/>
	<path class="st0" d="M168.3,69.1c0-1.6-0.7-2.2-1.9-2.2c-0.6,0-1.1,0.1-1.5,0.4c0.7,0.1,1,0.6,1,1.2c0,0.8-0.7,1.3-1.5,1.3
		c-0.7,0-1.5-0.5-1.5-1.5c0-1.5,1.7-2.5,4-2.5c2.6,0,4.2,0.9,4.2,3.3c0,1.6-0.2,2.7-0.2,3.9c0,0.4,0.1,0.6,0.4,0.6
		c0.2,0,0.5-0.1,0.5-0.7v-0.8h1.1v0.7c0,1.7-0.6,2.8-2.1,2.8c-0.9,0-1.7-0.4-1.7-1.9c0-0.4,0-0.8,0.1-1.1h-0.2
		c-0.4,2.1-1.9,3.2-3.5,3.2c-1.7,0-3-0.9-3-2.7c0-1.6,1.5-3,4.4-3c0.5,0,1,0,1.5,0.1C168.3,69.7,168.3,69.4,168.3,69.1z M167.2,70.8
		c-1.5,0-2.1,0.8-2.1,1.5c0,0.7,0.5,1.1,1.2,1.1c0.8,0,1.8-0.5,1.9-2.5C167.8,70.8,167.5,70.8,167.2,70.8z"/>
	<path class="st0" d="M179.5,73v2.2h-5.7V73h1.7v-8.3h-1.7v-2.2h4.3V73H179.5z"/>
	<path class="st0" d="M186.3,69.1c0-1.6-0.7-2.2-1.9-2.2c-0.6,0-1.1,0.1-1.5,0.4c0.7,0.1,1,0.6,1,1.2c0,0.8-0.7,1.3-1.5,1.3
		c-0.7,0-1.5-0.5-1.5-1.5c0-1.5,1.7-2.5,4-2.5c2.6,0,4.2,0.9,4.2,3.3c0,1.6-0.2,2.7-0.2,3.9c0,0.4,0.1,0.6,0.4,0.6
		c0.2,0,0.5-0.1,0.5-0.7v-0.8h1.1v0.7c0,1.7-0.6,2.8-2.1,2.8c-0.9,0-1.7-0.4-1.7-1.9c0-0.4,0-0.8,0.1-1.1h-0.2
		c-0.4,2.1-1.9,3.2-3.5,3.2c-1.7,0-3-0.9-3-2.7c0-1.6,1.5-3,4.4-3c0.5,0,1,0,1.5,0.1C186.3,69.7,186.3,69.4,186.3,69.1z M185.2,70.8
		c-1.5,0-2.1,0.8-2.1,1.5c0,0.7,0.5,1.1,1.2,1.1c0.8,0,1.8-0.5,1.9-2.5C185.9,70.8,185.5,70.8,185.2,70.8z"/>
	<path class="st0" d="M196.4,67c-1.6,0-2.6,1.6-2.6,3.1c0,1.8,1.1,3,2.7,3c0.9,0,1.8-0.4,2.4-1.4l1.5,1.6c-0.9,1.5-2.3,2.2-4.2,2.2
		c-2.9,0-4.8-2.3-4.8-4.9c0-3.1,2.4-5,5-5c1.9,0,3.5,0.8,3.5,2.4c0,1-0.8,1.8-1.8,1.8c-1,0-1.7-0.5-1.7-1.6c0-0.5,0.2-1,0.6-1.2
		C196.8,67,196.7,67,196.4,67z"/>
	<path class="st0" d="M209.1,72.2l1,0.6c-0.8,1.8-2.2,2.7-4.1,2.7c-3,0-5-2.2-5-5c0-3.1,2.5-4.9,5-4.9c3.1,0,4.7,2.1,4.5,5.3h-6.7
		c0.1,1.8,1.3,2.7,2.8,2.7C207.8,73.7,208.7,73.2,209.1,72.2z M206.2,67.5c-1.2,0-2.1,0.9-2.2,2.1h4.3
		C208.2,68.3,207.4,67.5,206.2,67.5z"/>
	<path class="st0" d="M215.2,67.1c-0.7,0-1,0.3-1,0.9c0,2.2,6.1,0.8,6.1,4.7c0,2.1-1.8,2.9-3.6,2.9c-1.3,0-2.4-0.6-2.8-2h-0.1
		l0.1,1.8h-2V72h2.4c0,1.5,0.7,2.3,2.2,2.3c0.8,0,1.3-0.4,1.3-1c0-2.2-6.1-0.8-6.1-4.7c0-1.8,1.6-2.8,3.2-2.8c1.5,0,2.6,0.7,2.7,2.1
		h0.1c0-0.6,0-1.2,0-1.8h2v3.3h-2.4C217.2,67.6,216.3,67.1,215.2,67.1z"/>
</g>
<g>
	<g>
		<path class="st0" d="M45.4,37.4L41.2,42l4.2,4.5l4.2-4.5L45.4,37.4z M44.1,21.8c0,1.1-0.4,2.3-2,2.9v0.4h6.5v-0.4
			c-1.6-0.6-1.9-1.8-2-2.9c1.1,0,2.4,0.4,3,2h0.4v-6.5h-0.4c-0.6,1.6-2,1.9-3,2c0-1.1,0.4-2.2,2-2.9v-0.4h-6.5v0.4
			c1.6,0.6,1.9,1.8,2,2.9c-1.1,0-2.4-0.4-3-2h-0.4v6.5h0.4C41.7,22.2,43.1,21.9,44.1,21.8z M45.4,19.2c0.8,0,1.4,0.6,1.4,1.4
			c0,0.8-0.6,1.4-1.4,1.4c-0.8,0-1.4-0.6-1.4-1.4C44,19.8,44.6,19.2,45.4,19.2z M21.2,46.8c0-0.8-0.6-1.4-1.4-1.4
			c-0.8,0-1.4,0.6-1.4,1.4c0,0.8,0.6,1.4,1.4,1.4C20.5,48.2,21.2,47.5,21.2,46.8z M21.3,49c-0.8,0-1.4,0.6-1.4,1.4s0.6,1.4,1.4,1.4
			s1.4-0.6,1.4-1.4S22,49,21.3,49z M28.8,37.7c3.9,0,6.3,3,9,3c1.2,0,2.6-0.9,2.6-2.3c0-0.8-0.6-1.4-1.4-1.4c-0.8,0-1.4,0.6-1.4,1.4
			c0,0.7,0.5,1.2,1.1,1.4c-0.1,0-0.3,0.1-0.4,0.1c-2.6,0-5.3-3.1-9.5-3.1c-4.4,0-7.2,3.5-7.2,7.5c0,3.1,1.9,5.7,3,7.7
			c-0.1,0-0.2,0-0.3,0c-0.8,0-1.4,0.6-1.4,1.4s0.6,1.4,1.4,1.4c0.8,0,1.4-0.6,1.4-1.4c0-2.3-3.1-5-3.1-9
			C22.5,40.6,24.9,37.7,28.8,37.7z M19.6,44.2c0.8,0,1.4-0.6,1.4-1.4c0-0.8-0.6-1.4-1.4-1.4c-0.8,0-1.4,0.6-1.4,1.4
			C18.1,43.5,18.8,44.2,19.6,44.2z M21,40.3c0.8,0,1.4-0.6,1.4-1.4c0-0.8-0.6-1.4-1.4-1.4c-0.8,0-1.4,0.6-1.4,1.4
			C19.6,39.7,20.2,40.3,21,40.3z M23.7,37.5c0.8,0,1.4-0.6,1.4-1.4c0-0.8-0.6-1.4-1.4-1.4c-0.8,0-1.4,0.6-1.4,1.4
			C22.3,36.9,23,37.5,23.7,37.5z M27.5,36.2c0.8,0,1.4-0.6,1.4-1.4c0-0.8-0.6-1.4-1.4-1.4c-0.8,0-1.4,0.6-1.4,1.4
			C26.1,35.6,26.8,36.2,27.5,36.2z M31.5,36.5c0.8,0,1.4-0.6,1.4-1.4s-0.6-1.4-1.4-1.4c-0.8,0-1.4,0.6-1.4,1.4S30.8,36.5,31.5,36.5z
			 M35.3,38.1c0.8,0,1.4-0.6,1.4-1.4c0-0.8-0.6-1.4-1.4-1.4c-0.8,0-1.4,0.6-1.4,1.4C33.9,37.4,34.5,38.1,35.3,38.1z M71,45.4
			c-0.8,0-1.4,0.6-1.4,1.4c0,0.8,0.6,1.4,1.4,1.4c0.8,0,1.4-0.6,1.4-1.4S71.8,45.4,71,45.4z M69.5,49c-0.8,0-1.4,0.6-1.4,1.4
			c0,0.8,0.6,1.4,1.4,1.4c0.8,0,1.4-0.6,1.4-1.4S70.3,49,69.5,49z M66.6,51.9c-0.1,0-0.2,0-0.3,0c1.1-2,3-4.5,3-7.7
			c0-4-2.8-7.5-7.2-7.5c-4.2,0-6.9,3.1-9.5,3.1c-0.1,0-0.3,0-0.4-0.1c0.6-0.1,1.1-0.7,1.1-1.4c0-0.8-0.6-1.4-1.4-1.4
			c-0.8,0-1.4,0.6-1.4,1.4c0,1.4,1.4,2.3,2.6,2.3c2.7,0,5.1-3,9-3c3.9,0,6.3,2.9,6.3,6.6c0,4-3.1,6.7-3.1,9c0,0.8,0.6,1.4,1.4,1.4
			c0.8,0,1.4-0.6,1.4-1.4C68,52.5,67.4,51.9,66.6,51.9z M71.2,41.4c-0.8,0-1.4,0.6-1.4,1.4c0,0.8,0.6,1.4,1.4,1.4
			c0.8,0,1.4-0.6,1.4-1.4C72.6,42,72,41.4,71.2,41.4z M69.8,40.3c0.8,0,1.4-0.6,1.4-1.4c0-0.8-0.6-1.4-1.4-1.4
			c-0.8,0-1.4,0.6-1.4,1.4C68.4,39.7,69,40.3,69.8,40.3z M67,37.5c0.8,0,1.4-0.6,1.4-1.4c0-0.8-0.6-1.4-1.4-1.4
			c-0.8,0-1.4,0.6-1.4,1.4C65.6,36.9,66.3,37.5,67,37.5z M63.2,36.2c0.8,0,1.4-0.6,1.4-1.4c0-0.8-0.6-1.4-1.4-1.4
			c-0.8,0-1.4,0.6-1.4,1.4C61.8,35.6,62.4,36.2,63.2,36.2z M59.2,36.5c0.8,0,1.4-0.6,1.4-1.4s-0.6-1.4-1.4-1.4
			c-0.8,0-1.4,0.6-1.4,1.4S58.5,36.5,59.2,36.5z M55.4,38.1c0.8,0,1.4-0.6,1.4-1.4c0-0.8-0.6-1.4-1.4-1.4c-0.8,0-1.4,0.6-1.4,1.4
			C54,37.4,54.7,38.1,55.4,38.1z M45.4,36.1c2.5,0,4.6-2,4.7-4.4h-9.4C40.8,34.1,42.9,36.1,45.4,36.1z M45.7,26.6V31h4.4
			C49.9,28.7,48.1,26.8,45.7,26.6z M45.1,26.6c-2.4,0.2-4.3,2-4.4,4.4h4.4V26.6z M45.4,58.9c-1.7,1-3.4,2.1-3.4,3.6V68h6.9v-5.5
			C48.8,61,47.1,59.8,45.4,58.9z M38.4,60.8c-0.7,0.4-1.2,1.1-1.2,1.4v3.1h2.5v-3.1C39.6,62,39.2,61.3,38.4,60.8z M63.4,46.4
			c0-0.3-0.1-0.6-0.3-0.9c-0.2-0.4-0.6-0.7-1.2-0.9c-0.6-0.3-0.7-1-0.8-1.5l0-0.2l0.1-0.1c0.2-0.1,0.4-0.4,0.4-0.6
			c0-0.3-0.2-0.5-0.4-0.7l-0.1-0.1v-0.4h-0.7v0.4l-0.1,0.1c-0.3,0.1-0.4,0.4-0.4,0.7c0,0.3,0.1,0.5,0.4,0.6l0.1,0.1l0,0.2
			c-0.1,0.5-0.1,1.3-0.8,1.6c-0.6,0.3-1,0.5-1.2,0.9c-0.2,0.3-0.2,0.6-0.3,0.9l0,0.1L57.2,47v0.4h7V47l-0.8-0.4L63.4,46.4z M35.4,68
			h5.9v-5.5c0-0.2,0-0.3,0.1-0.5V47.8h-6V68z M37.7,50.3c0-0.3,0.3-0.6,0.7-0.6c0.4,0,0.7,0.3,0.7,0.6V53h-1.3V50.3z M37.7,55.5
			c0-0.3,0.3-0.6,0.7-0.6c0.4,0,0.7,0.3,0.7,0.6v2.7h-1.3V55.5z M36.7,62.2c0-0.6,0.8-1.5,1.6-1.9l0.1-0.1l0.1,0.1
			c0.8,0.4,1.6,1.3,1.6,1.9v3.6h-3.4C36.7,65.9,36.7,62.2,36.7,62.2z M48.9,52.5h-7v8.3c0.8-1.2,2.5-2.1,3.4-2.6l0.1-0.1l0.1,0.1
			c0.9,0.5,2.5,1.4,3.4,2.6L48.9,52.5L48.9,52.5z M47.6,57.2h-4.5v-3.4h4.5L47.6,57.2L47.6,57.2z M49.4,45v2.3h6V45h-1.7v1.2h-2.4
			V45H49.4z M27.3,69.3c1.3,1,2.8,1.5,4.5,1.5c1.6,0,3.1-0.5,4.4-1.4l0.2-0.1l0.2,0.1c1.3,0.9,2.8,1.4,4.4,1.4
			c1.6,0,3.1-0.5,4.3-1.4l0.2-0.1l0.2,0.1c1.3,0.9,2.8,1.4,4.3,1.4c1.6,0,3.1-0.5,4.3-1.4l0.2-0.1l0.2,0.1c1.3,0.9,2.8,1.4,4.4,1.4
			c1.6,0,3.2-0.5,4.5-1.5v-0.8H27.3V69.3z M57.9,47.8V68h5.5V47.8H57.9z M61.5,65.6h-1.6v-3.2c0-0.4,0.4-0.7,0.8-0.7
			c0.4,0,0.8,0.3,0.8,0.7V65.6z M61.6,53.6H61v3.6c0.1,0.1,0.3,0.3,0.3,0.4c0,0.3-0.2,0.5-0.5,0.5c-0.3,0-0.5-0.2-0.5-0.5
			c0-0.2,0.1-0.3,0.3-0.4v-3.6h-0.6v-0.4h0.6V50H61v3.2h0.6L61.6,53.6L61.6,53.6z M33.6,47l-0.8-0.4l0-0.1c0-0.3-0.1-0.6-0.3-0.9
			c-0.2-0.4-0.6-0.7-1.2-0.9c-0.6-0.3-0.7-1-0.8-1.5l0-0.2l0.1-0.1c0.2-0.1,0.4-0.4,0.4-0.6c0-0.3-0.2-0.5-0.4-0.7l-0.1-0.1v-0.4
			h-0.7v0.4l-0.1,0.1c-0.3,0.1-0.4,0.4-0.4,0.7c0,0.3,0.1,0.5,0.4,0.6l0.1,0.1l0,0.2c-0.1,0.5-0.2,1.3-0.8,1.5
			c-0.6,0.3-1,0.5-1.2,0.9c-0.2,0.3-0.2,0.6-0.3,0.9l0,0.1L26.6,47v0.4h7L33.6,47L33.6,47z M47.1,54.3h-3.5v2.4h3.5V54.3z M33.3,68
			h1.6V52.5h-1.6C33.3,52.5,33.3,68,33.3,68z M48.9,49.9h-2.3v1.4h-2.5v-1.4h-2.3V52h7V49.9z M41.4,45h-1.8v1.2h-2.4V45h-1.7v2.3h6
			V45z M55.3,68V47.8h-6v14.1c0,0.2,0.1,0.3,0.1,0.5V68H55.3z M51.7,50.3c0-0.3,0.3-0.6,0.7-0.6c0.4,0,0.7,0.3,0.7,0.6V53h-1.3V50.3
			z M51.7,55.5c0-0.3,0.3-0.6,0.7-0.6c0.4,0,0.7,0.3,0.7,0.6v2.7h-1.3V55.5z M50.6,62.2c0-0.6,0.8-1.5,1.6-1.9l0.1-0.1l0.1,0.1
			c0.8,0.4,1.6,1.3,1.6,1.9v3.6h-3.4V62.2z M55.8,52.5V68h1.6V52.5H55.8z M54.4,70c-1.3,0.9-2.9,1.4-4.5,1.4c-1.6,0-3.2-0.5-4.5-1.4
			c-1.3,0.9-2.9,1.4-4.5,1.4c-1.6,0-3.2-0.5-4.5-1.4c-1.3,0.9-2.9,1.4-4.5,1.4c-1.6,0-3.2-0.5-4.5-1.4v5.2h36.1V70
			c-1.3,0.9-2.9,1.4-4.5,1.4C57.3,71.4,55.8,70.9,54.4,70z M38.8,73.2h-5.6v-0.1c0.9-0.2,2.7-0.8,3.1-1.2c0.3,0.3,1,0.8,2.4,1.2
			V73.2z M47.8,73.2h-5.6v-0.1c0.9-0.2,2.7-0.8,3.1-1.2c0.3,0.3,1,0.8,2.4,1.2L47.8,73.2L47.8,73.2z M56.9,73.2h-5.6v-0.1
			c0.9-0.2,2.7-0.8,3.1-1.2c0.3,0.3,1,0.8,2.4,1.2V73.2z M52.4,60.8c-0.7,0.4-1.2,1.1-1.2,1.4v3.1h2.5v-3.1
			C53.6,62,53.1,61.3,52.4,60.8z M32.8,68V47.8h-5.5V68H32.8z M30.9,65.6h-1.6v-3.2c0-0.4,0.4-0.7,0.8-0.7c0.4,0,0.8,0.3,0.8,0.7
			V65.6z M29.1,53.2h0.6V50h0.6v3.2H31v0.4h-0.6v3.6c0.1,0.1,0.3,0.3,0.3,0.4c0,0.3-0.2,0.5-0.5,0.5c-0.3,0-0.5-0.2-0.5-0.5
			c0-0.2,0.1-0.3,0.3-0.4v-3.6h-0.6L29.1,53.2L29.1,53.2z"/>
	</g>
</g>
</svg>
