<?xml version="1.0" encoding="utf-8"?>
<!-- Generator: Adobe Illustrator 19.2.1, SVG Export Plug-In . SVG Version: 6.00 Build 0)  -->
<svg version="1.1" id="Layer_1" xmlns="http://www.w3.org/2000/svg" xmlns:xlink="http://www.w3.org/1999/xlink" x="0px" y="0px"
	 viewBox="0 0 240 95" style="enable-background:new 0 0 240 95;" xml:space="preserve">
<style type="text/css">
	.st0{fill:#FFFFFF;}
</style>
<g>
	<g>
		<path class="st0" d="M45,39.8h-1.8v3.6H45V39.8z M62,64.4h10.6V52.5H62V64.4z M64.8,54.2h5.2v9.1h-5.2V54.2z M67.5,58.5h1.8v-3.8
			h-1.8V58.5z M32.1,74.3H34v-3.4h-1.8V74.3z M34.5,70.5h1.8v-3.2h-1.8V70.5z M69.4,39.8h-1.8v3.6h1.8V39.8z M67.5,62.8h1.8V59h-1.8
			V62.8z M67.1,39.8h-1.8v3.6h1.8V39.8z M65.2,62.8h1.8V59h-1.8V62.8z M62,52h10.6V34.7l0,0v-5.8l0,0v-1.2H62V52z M69.9,48.4h-5.2
			v-9h5.2V48.4z M65.2,34.6v-0.4h4.3v0.4H65.2z M63.6,30.6h7.6v4h-0.5v-3.6h-6.6v3.6h-0.5L63.6,30.6L63.6,30.6z M29,74.3h2.7v-7.5
			h5.2v7.5h2.7V63.9H29V74.3z M32.1,57.5H34v-3.8h-1.8V57.5z M29,63.4h10.6V50.1H29V63.4z M31.6,53.2h5.2v9.1h-5.2V53.2z M45,43.9
			h-1.8v3.9H45V43.9z M47.4,43.9h-1.8v3.9h1.8V43.9z M47.4,39.8h-1.8v3.6h1.8V39.8z M34.5,57.5h1.8v-3.8h-1.8V57.5z M32.1,61.8H34
			V58h-1.8V61.8z M69.4,43.9h-1.8v3.9h1.8V43.9z M32.1,70.5H34v-3.2h-1.8V70.5z M34.5,61.8h1.8V58h-1.8V61.8z M34.5,74.3h1.8v-3.4
			h-1.8V74.3z M65.2,58.5h1.8v-3.8h-1.8V58.5z M67.5,75.3h1.8v-3.4h-1.8V75.3z M65.2,75.3h1.8v-3.4h-1.8V75.3z M54.2,75.3H56v-3.4
			h-1.8V75.3z M65.2,71.5h1.8v-3.2h-1.8V71.5z M73.1,63.4h10.6V50.1H73.1C73.1,50.1,73.1,63.4,73.1,63.4z M75.8,53.2H81v9.1h-5.2
			C75.8,62.3,75.8,53.2,75.8,53.2z M67.5,71.5h1.8v-3.2h-1.8V71.5z M76.3,57.5h1.8v-3.8h-1.8V57.5z M78.6,61.8h1.8V58h-1.8
			C78.6,58,78.6,61.8,78.6,61.8z M67.1,43.9h-1.8v3.9h1.8V43.9z M76.3,61.8h1.8V58h-1.8V61.8z M78.6,57.5h1.8v-3.8h-1.8
			C78.6,53.7,78.6,57.5,78.6,57.5z M43.2,71.5H45v-3.2h-1.8V71.5z M45.5,75.3h1.8v-3.4h-1.8C45.5,71.9,45.5,75.3,45.5,75.3z
			 M45.5,71.5h1.8v-3.2h-1.8C45.5,68.3,45.5,71.5,45.5,71.5z M40,75.3h2.7v-7.5h5.2v7.5h2.7V64.9H40V75.3z M56.3,19.5l-16.9,6.9
			l0.4,0.7h32.8l0.4-0.7L56.3,19.5z M54.2,71.5H56v-3.2h-1.8V71.5z M56.6,71.5h1.8v-3.2h-1.8V71.5z M43.2,75.3H45v-3.4h-1.8V75.3z
			 M56.6,75.3h1.8v-3.4h-1.8V75.3z M51,75.3h2.7v-7.5h5.2v7.5h2.7V64.9H51V75.3z M62,75.3h2.7v-7.5h5.2v7.5h2.7V64.9H62V75.3z
			 M73.1,35.8h10.6v-6.4H73.1C73.1,29.4,73.1,35.8,73.1,35.8z M39.5,36.3H28.9v13.3h10.6V36.3z M36.8,48.5h-5.2V38.4h5.2V48.5z
			 M34,43.7h-1.8V48H34V43.7z M34,38.9h-1.8v4.3H34V38.9z M36.3,38.9h-1.8v4.3h1.8V38.9z M36.3,43.7h-1.8V48h1.8V43.7z M56.6,62.8
			h1.8V59h-1.8V62.8z M51,64.4h10.5V52.5H51V64.4z M53.7,54.2h5.2v9.1h-5.2V54.2z M54.2,62.8H56V59h-1.8V62.8z M54.2,58.5H56v-3.8
			h-1.8V58.5z M56.6,58.5h1.8v-3.8h-1.8V58.5z M78.6,74.3h1.8v-3.4h-1.8C78.6,70.9,78.6,74.3,78.6,74.3z M80.5,38.9h-1.8v4.3h1.8
			V38.9z M80.5,43.7h-1.8V48h1.8V43.7z M78.1,43.7h-1.8V48h1.8V43.7z M78.1,38.9h-1.8v4.3h1.8V38.9z M73.1,36.3v13.3h10.6V36.3H73.1
			z M81,48.5h-5.2V38.4H81V48.5z M78.6,70.5h1.8v-3.2h-1.8C78.6,67.3,78.6,70.5,78.6,70.5z M73.1,74.3h2.7v-7.5h5.2v7.5h2.7V63.9
			H73.1V74.3L73.1,74.3z M76.3,74.3h1.8v-3.4h-1.8V74.3z M40,64.4h10.6V52.5H40V64.4z M42.7,54.2h5.2v9.1h-5.2V54.2z M76.3,70.5h1.8
			v-3.2h-1.8V70.5z M54.2,43.5H56v-3.8h-1.8V43.5z M56.5,47.9h1.8V44h-1.8V47.9z M51,52h10.5V27.7H51V52z M58.9,48.4h-5.2v-8.8
			c0-1.3,1.2-2.3,2.6-2.3c1.4,0,2.6,1.1,2.6,2.3L58.9,48.4z M54.1,34.6v-0.4h4.3v0.4H54.1z M52.5,30.6h7.6v4h-0.5v-3.6H53v3.6h-0.5
			C52.5,34.6,52.5,30.6,52.5,30.6z M29,35.9h10.6v-6.5H29V35.9z M43.2,62.8H45V59h-1.8V62.8z M40,52h10.6V27.7H40V52z M47.8,48.4
			h-5.2v-9h5.2V48.4L47.8,48.4z M43.1,34.6v-0.4h4.3v0.4H43.1z M41.6,30.6H49v4h-0.4V31h-6.8v3.6h-0.4L41.6,30.6L41.6,30.6z
			 M56.5,43.5h1.8v-3.8h-1.8V43.5L56.5,43.5z M56.3,37.8c-1,0-1.8,0.7-2.1,1.5h4.1C58.1,38.4,57.3,37.8,56.3,37.8z M54.2,47.9H56V44
			h-1.8V47.9z M45.5,62.8h1.8V59h-1.8V62.8z M45.5,58.5h1.8v-3.8h-1.8V58.5z M43.2,58.5H45v-3.8h-1.8V58.5z"/>
	</g>
</g>
<g>
	<path class="st0" d="M107.5,54.2v2.2h-6.8v-2.2h2.1v-8.3h-2.1v-2.2h6.8v2.2h-1.7V50l4.5-4.1h-1.7v-2.2h6.1v2.2h-1.7l-3.8,3.4l4.7,5
		h1.3v2.2h-6.4v-2.2h1.4l-3-3.2l-1.5,1.3v2H107.5z"/>
	<path class="st0" d="M123.9,53.3l1,0.6c-0.8,1.8-2.2,2.7-4.1,2.7c-3,0-5-2.2-5-5c0-3.1,2.5-4.9,5-4.9c3.1,0,4.7,2.1,4.5,5.3h-6.7
		c0.1,1.8,1.3,2.7,2.8,2.7C122.6,54.8,123.5,54.3,123.9,53.3z M121,48.6c-1.2,0-2.1,0.9-2.2,2.1h4.3C123,49.4,122.3,48.6,121,48.6z"
		/>
	<path class="st0" d="M129.7,50.6c0.4-2.5,1.8-3.8,3.8-3.8c2,0,3.1,1.2,3.1,3.2v4.1h1.2v2.2h-5.3v-2.2h1.5v-2.9c0-1.6-0.5-2-1.5-2
		c-1.2,0-2.1,0.7-2.1,2v2.8h1.4v2.2h-5.7v-2.2h1.7v-4.8h-1.7v-2.2h3.7c0,0.8-0.1,2.6-0.2,3.4H129.7z"/>
	<path class="st0" d="M142.2,48.2c-0.7,0-1,0.3-1,0.9c0,2.2,6.1,0.8,6.1,4.7c0,2.1-1.8,2.9-3.6,2.9c-1.3,0-2.4-0.6-2.8-2h-0.1
		l0.1,1.8h-2v-3.4h2.4c0,1.5,0.7,2.3,2.2,2.3c0.8,0,1.3-0.4,1.3-1c0-2.2-6.1-0.8-6.1-4.7c0-1.8,1.6-2.8,3.2-2.8
		c1.5,0,2.6,0.7,2.7,2.1h0.1c0-0.6,0-1.2,0-1.8h2v3.3h-2.4C144.2,48.8,143.4,48.2,142.2,48.2z"/>
	<path class="st0" d="M154,54.2v2.2h-5.7v-2.2h1.7v-4.8h-1.7v-2.2h4.3v7H154z M151.3,46.4c-0.9,0-1.5-0.7-1.5-1.5
		c0-0.8,0.7-1.5,1.5-1.5c0.8,0,1.5,0.7,1.5,1.5C152.9,45.7,152.2,46.4,151.3,46.4z"/>
	<path class="st0" d="M158.8,50.6c0.4-2.5,1.8-3.8,3.8-3.8c2,0,3.1,1.2,3.1,3.2v4.1h1.2v2.2h-5.3v-2.2h1.5v-2.9c0-1.6-0.5-2-1.5-2
		c-1.2,0-2.1,0.7-2.1,2v2.8h1.4v2.2h-5.7v-2.2h1.7v-4.8h-1.7v-2.2h3.7c0,0.8-0.1,2.6-0.2,3.4H158.8z"/>
	<path class="st0" d="M174.7,46.3c-0.8,0-1.3-0.5-1.3-1.3c0-0.8,0.6-1.6,1.7-1.6c1.5,0,2.2,1.1,2.2,2.1c0,1-0.6,2.1-1.9,2.4
		c0.7,0.5,1.2,1.4,1.2,2.6c0,2.1-1.5,3.3-4,3.3c-0.9,0-1.7-0.2-2.3-0.5c-0.6,0-1,0.4-1,0.8c0,0.4,0.3,0.6,0.8,0.6
		c1.4,0,2.5-0.1,4.3-0.1c1.8,0,3,0.8,3,2.2c0,1.8-1.8,3.5-5.3,3.5c-3.2,0-4.5-1-4.5-2.2c0-1.1,0.9-1.7,1.8-1.9
		c-1.1,0-1.7-0.6-1.7-1.3c0-0.9,0.8-1.7,1.7-1.9c-0.7-0.5-1.3-1.3-1.3-2.4c0-2,1.8-3.5,4.2-3.5c1,0,1.6,0.3,2.3,0.3
		c0.8,0,1.3-0.6,1.3-1.2c0-0.1,0-0.3-0.1-0.4C175.6,46.1,175.2,46.3,174.7,46.3z M169.7,57.2c0,0.6,0.9,0.9,2.7,0.9
		c1.6,0,2.4-0.4,2.4-1c0-0.4-0.3-0.7-1.4-0.7H171C169.9,56.4,169.7,56.8,169.7,57.2z M172.8,52.5c1.1,0,1.8-0.7,1.8-1.8
		c0-1.2-0.7-1.9-1.8-1.9c-1.1,0-1.8,0.7-1.8,1.9C170.9,51.9,171.6,52.5,172.8,52.5z"/>
	<path class="st0" d="M179.4,54.1v-4.7h-1.9v-1.2c2.1,0,3.4-0.9,3.3-3.9h1.2v3h3.6v2.2H182v4.3c0,0.6,0.5,1,1.1,1
		c0.6,0,1.1-0.3,1.1-1v-1.3h1.4V54c0,1.9-1.6,2.7-3.1,2.7S179.4,55.9,179.4,54.1z"/>
	<path class="st0" d="M191.9,56.7c-2.9,0-5.2-2.2-5.2-5c0-2.9,2.3-4.9,5.2-4.9c2.9,0,5.2,2.1,5.2,4.9
		C197.1,54.5,194.8,56.7,191.9,56.7z M191.9,54.9c1.7,0,2.1-0.5,2.1-3.1c0-2.3-0.4-3.1-2.1-3.1c-1.6,0-2.2,0.6-2.2,3.1
		C189.7,54.3,190.2,54.9,191.9,54.9z"/>
	<path class="st0" d="M201.5,50.6c0.4-2.5,1.8-3.8,3.8-3.8c2,0,3.1,1.2,3.1,3.2v4.1h1.2v2.2h-5.3v-2.2h1.5v-2.9c0-1.6-0.5-2-1.5-2
		c-1.2,0-2.1,0.7-2.1,2v2.8h1.4v2.2h-5.7v-2.2h1.7v-4.8h-1.7v-2.2h3.7c0,0.8-0.1,2.6-0.2,3.4H201.5z"/>
	<path class="st0" d="M100.7,75.5v-2.2h2.1V65h-2.1v-2.2h7.7c2.7,0,5.1,1.4,5.1,4c0,2.1-1.7,4-5.3,4h-2.5v2.6h2.3v2.2H100.7z
		 M105.7,65v3.7h2.1c1.7,0,2.5-0.8,2.5-1.9c0-1-0.6-1.9-2.2-1.9H105.7z"/>
	<path class="st0" d="M120.1,69.3c0-1.6-0.7-2.2-1.9-2.2c-0.6,0-1.1,0.1-1.5,0.4c0.7,0.1,1,0.6,1,1.2c0,0.8-0.7,1.3-1.5,1.3
		c-0.7,0-1.5-0.5-1.5-1.5c0-1.5,1.7-2.5,4-2.5c2.6,0,4.2,0.9,4.2,3.3c0,1.6-0.2,2.7-0.2,3.9c0,0.4,0.1,0.6,0.4,0.6s0.5-0.1,0.5-0.7
		v-0.8h1.1v0.7c0,1.7-0.6,2.8-2.1,2.8c-0.9,0-1.7-0.4-1.7-1.9c0-0.4,0-0.8,0.1-1.1h-0.2c-0.4,2.1-1.9,3.2-3.5,3.2
		c-1.7,0-3-0.9-3-2.7c0-1.6,1.5-3,4.4-3c0.5,0,1,0,1.5,0.1C120.1,69.9,120.1,69.6,120.1,69.3z M119,71c-1.5,0-2.1,0.8-2.1,1.5
		c0,0.7,0.5,1.1,1.2,1.1c0.8,0,1.8-0.5,1.9-2.5C119.7,71.1,119.3,71,119,71z"/>
	<path class="st0" d="M131.4,73.3v2.2h-5.7v-2.2h1.7V65h-1.7v-2.2h4.3v10.5H131.4z"/>
	<path class="st0" d="M138.2,69.3c0-1.6-0.7-2.2-1.9-2.2c-0.6,0-1.1,0.1-1.5,0.4c0.7,0.1,1,0.6,1,1.2c0,0.8-0.7,1.3-1.5,1.3
		c-0.7,0-1.5-0.5-1.5-1.5c0-1.5,1.7-2.5,4-2.5c2.6,0,4.2,0.9,4.2,3.3c0,1.6-0.2,2.7-0.2,3.9c0,0.4,0.1,0.6,0.4,0.6
		c0.2,0,0.5-0.1,0.5-0.7v-0.8h1.1v0.7c0,1.7-0.6,2.8-2.1,2.8c-0.9,0-1.7-0.4-1.7-1.9c0-0.4,0-0.8,0.1-1.1h-0.2
		c-0.4,2.1-1.9,3.2-3.5,3.2c-1.7,0-3-0.9-3-2.7c0-1.6,1.5-3,4.4-3c0.5,0,1,0,1.5,0.1C138.2,69.9,138.2,69.6,138.2,69.3z M137.1,71
		c-1.5,0-2.1,0.8-2.1,1.5c0,0.7,0.5,1.1,1.2,1.1c0.8,0,1.8-0.5,1.9-2.5C137.8,71.1,137.4,71,137.1,71z"/>
	<path class="st0" d="M148.3,67.3c-1.6,0-2.6,1.6-2.6,3.1c0,1.8,1.1,3,2.7,3c0.9,0,1.8-0.4,2.4-1.4l1.5,1.6
		c-0.9,1.5-2.3,2.2-4.2,2.2c-2.9,0-4.8-2.3-4.8-4.9c0-3.1,2.4-5,5-5c1.9,0,3.5,0.8,3.5,2.4c0,1-0.8,1.8-1.8,1.8
		c-1,0-1.7-0.5-1.7-1.6c0-0.5,0.2-1,0.6-1.2C148.7,67.3,148.5,67.3,148.3,67.3z"/>
	<path class="st0" d="M160.9,72.4l1,0.6c-0.8,1.8-2.2,2.7-4.1,2.7c-3,0-5-2.2-5-5c0-3.1,2.5-4.9,5-4.9c3.1,0,4.7,2.1,4.5,5.3h-6.7
		c0.1,1.8,1.3,2.7,2.8,2.7C159.7,73.9,160.5,73.4,160.9,72.4z M158,67.7c-1.2,0-2.1,0.9-2.2,2.1h4.3C160.1,68.5,159.3,67.7,158,67.7
		z"/>
</g>
</svg>
