<?xml version="1.0" encoding="utf-8"?>
<!-- Generator: Adobe Illustrator 19.2.1, SVG Export Plug-In . SVG Version: 6.00 Build 0)  -->
<svg version="1.1" id="Layer_1" xmlns="http://www.w3.org/2000/svg" xmlns:xlink="http://www.w3.org/1999/xlink" x="0px" y="0px"
	 viewBox="0 0 240 95" style="enable-background:new 0 0 240 95;" xml:space="preserve">
<style type="text/css">
	.st0{fill:#010202;}
</style>
<g>
	<g>
		<path class="st0" d="M43.8,30h1.7v-1.7h-1.7V30z M41.5,39.2v0.4h1.7v-2.3C42.3,37.4,41.5,38.2,41.5,39.2z M38.3,58.8h10.6v-2.3
			H38.3V58.8z M43.8,37.2v2.3h1.7v-0.4C45.5,38.2,44.8,37.4,43.8,37.2z M38.3,45h10.6V34.4H38.3V45z M41.1,39.2
			c0-1.4,1.1-2.4,2.4-2.4s2.4,1.1,2.4,2.4v3.7h-4.9V39.2z M41.5,42.5h1.7V40h-1.7V42.5z M41.5,53.5h1.7v-2.4h-1.7V53.5z M41.5,50.2
			v0.4h1.7v-2.3C42.3,48.5,41.5,49.2,41.5,50.2z M43.8,53.5h1.7v-2.4h-1.7V53.5z M38.3,56.1h10.6V45.5H38.3V56.1z M41.1,50.2
			c0-1.4,1.1-2.4,2.4-2.4s2.4,1.1,2.4,2.4V54h-4.9C41.1,54,41.1,50.2,41.1,50.2z M43.8,48.3v2.3h1.7v-0.4
			C45.5,49.2,44.8,48.5,43.8,48.3z M43.8,42.5h1.7V40h-1.7V42.5z M43.8,32.2h1.7v-1.7h-1.7V32.2z M37.8,62.4v-3.1h-3
			C36.1,59.9,37.2,61,37.8,62.4z M32.8,53.5h1.7v-2.4h-1.7V53.5z M32.8,50.5h1.7v-2.3h-1.7V50.5z M32.5,59.3c-2.8,0-5.1,2.3-5.3,5.1
			v8.2h10.6v-7.8C37.7,61.7,35.4,59.3,32.5,59.3z M27.2,58.8h10.6v-2.3H27.2V58.8z M27.2,78h10.6v-4.9H27.2V78z M41.5,32.2h1.7v-1.7
			h-1.7V32.2z M41.5,30h1.7v-1.7h-1.7V30z M56.4,34c0.1-0.6,0-2.4-1.8-3.6c-0.4-0.2-0.8-0.5-1.1-0.7c-1.4-0.9-2.4-1.5-2.4-3H35.7
			c0,1.4-1.1,2.1-2.4,3c-0.4,0.2-0.7,0.5-1.1,0.7c-1.8,1.2-1.9,3-1.8,3.6H56.4L56.4,34z M41.1,27.8h4.9v4.9h-4.9V27.8z M30.3,59.3
			h-3v3.1C27.8,61,28.9,59.9,30.3,59.3z M65.8,61.6h1.7v-2.3h-1.7C65.8,59.3,65.8,61.6,65.8,61.6z M60.4,64.6c0,0.1,0,0.1,0,0.2l0,0
			v2.3h10.6V56.5H60.4C60.4,56.5,60.4,64.6,60.4,64.6z M63.2,58.8H68V65h-4.9C63.2,65,63.2,58.8,63.2,58.8z M48.8,62.3v-3h-3
			C47.2,59.9,48.3,61,48.8,62.3z M65.8,53.5h1.7v-2.4h-1.7C65.8,51.1,65.8,53.5,65.8,53.5z M63.6,64.5h1.7v-2.4h-1.7V64.5z
			 M63.6,50.5h1.7v-2.3h-1.7V50.5z M60.4,78h10.6V67.6H60.4V78z M70.9,26.7h-5.2c0,0.5-0.4,1.8-2.8,3.2c-2.7,1.5-2.7,3.5-2.7,4.2
			h10.6L70.9,26.7L70.9,26.7z M70.9,26.2v-5c-1.6,0.7-2.8,2-3.4,3.7l-0.1,0.2h-2.1l0.4,1.1C65.7,26.2,70.9,26.2,70.9,26.2z
			 M63.6,61.6h1.7v-2.3h-1.7V61.6z M65.8,64.5h1.7v-2.4h-1.7C65.8,62.1,65.8,64.5,65.8,64.5z M63.6,53.5h1.7v-2.4h-1.7V53.5z
			 M65.8,50.5h1.7v-2.3h-1.7C65.8,48.3,65.8,50.5,65.8,50.5z M38.3,75.4h10.6v-2.3H38.3V75.4z M38.3,78h10.6v-2.1H38.3V78z
			 M43.6,59.3c-2.9,0-5.3,2.6-5.3,5.5l0,0v7.8h10.6v-8.3C48.6,61.5,46.4,59.3,43.6,59.3z M60.4,34.4V45h10.6V34.4H60.4z M68,42.9
			h-4.9v-6.2H68V42.9z M41.4,59.3h-3.1v3.2C38.9,61,40,59.9,41.4,59.3z M65.3,37.2h-1.7v2.3h1.7V37.2z M30.6,50.5h1.7v-2.3h-1.7
			V50.5z M67.5,37.2h-1.7v2.3h1.7V37.2z M65.3,40h-1.7v2.4h1.7V40z M67.5,40h-1.7v2.4h1.7V40z M60.4,56.1h10.6V45.5H60.4V56.1z
			 M63.2,47.7H68v6.2h-4.9C63.2,54,63.2,47.7,63.2,47.7z M21.6,50.5h1.7v-2.3h-1.7V50.5z M23.3,62.1h-1.7v2.4h1.7V62.1z M23.3,59.3
			h-1.7v2.3h1.7V59.3z M21.1,59.3h-1.7v2.3h1.7V59.3z M16.2,78h10.6v-5.4l0,0v-5H16.2V78z M21.1,62.1h-1.7v2.4h1.7V62.1z M26.8,56.5
			H16.2v10.6h10.6v-2.3h-0.1c0-0.1,0.1-0.2,0.1-0.4v-5.1l0,0C26.8,59.3,26.8,56.5,26.8,56.5z M23.9,65H19v-6.2h4.9V65z M49.3,45
			h10.6V34.4H49.3V45z M52.1,36.8H57v6.2h-4.9V36.8z M54.8,39.5h1.7v-2.3h-1.7V39.5z M54.8,42.5h1.7V40h-1.7V42.5z M52.6,42.5h1.7
			V40h-1.7V42.5z M52.6,39.5h1.7v-2.3h-1.7V39.5z M19.4,53.5h1.7v-2.4h-1.7V53.5z M16.2,45h10.6V34.4H16.2V45z M18.9,36.8h4.9v6.2
			H19L18.9,36.8L18.9,36.8z M19.4,42.5h1.7V40h-1.7V42.5z M24.1,29.8c-2.4-1.4-2.7-2.6-2.8-3.2h-5.2v7.3h10.6
			C26.8,33.4,26.8,31.4,24.1,29.8z M19.4,39.5h1.7v-2.3h-1.7V39.5z M21.8,25.1h-2.1l-0.1-0.2c-0.6-1.7-1.8-3-3.4-3.7v5h5.2
			L21.8,25.1z M19.4,50.5h1.7v-2.3h-1.7V50.5z M21.6,53.5h1.7v-2.4h-1.7V53.5z M49.3,56.1h10.6V45.5H49.3V56.1z M52.1,47.7H57v6.2
			h-4.9V47.7z M21.6,42.5h1.7V40h-1.7V42.5z M21.6,39.5h1.7v-2.3h-1.7V39.5z M16.2,56.1h10.6V45.5H16.2V56.1z M18.9,47.7h4.9v6.2
			h-4.9V47.7z M54.8,50.5h1.7v-2.3h-1.7V50.5z M54.7,59.3c-2.9,0-5.3,2.6-5.3,5.5h-0.1v7.8h10.6v-8.1C59.8,61.6,57.5,59.3,54.7,59.3
			z M59.9,62.3v-3H57C58.2,59.9,59.3,61,59.9,62.3z M32.8,42.5h1.7V40h-1.7V42.5z M30.6,39.5h1.7v-2.3h-1.7V39.5z M49.3,78h10.6
			v-4.9H49.3V78z M52.5,59.3h-3.1v3.3C49.9,61.2,51,59.9,52.5,59.3z M27.2,45h10.6V34.4H27.2V45z M30.1,36.8H35v6.2h-4.9V36.8z
			 M30.6,42.5h1.7V40h-1.7V42.5z M51.2,26.2l0.4-1.1h-2.1l-0.1-0.2c-0.1-0.2-1.5-4.3-5.9-4.3s-5.9,4.2-5.9,4.3l-0.1,0.2h-2.1
			l0.4,1.1H51.2z M52.6,53.5h1.7v-2.4h-1.7V53.5z M52.6,50.5h1.7v-2.3h-1.7V50.5z M49.3,58.8h10.6v-2.3H49.3V58.8z M32.8,39.5h1.7
			v-2.3h-1.7V39.5z M27.2,56.1h10.6V45.5H27.2V56.1z M30.1,47.7H35v6.2h-4.9V47.7z M54.8,53.5h1.7v-2.4h-1.7V53.5z M30.6,53.5h1.7
			v-2.4h-1.7V53.5z"/>
	</g>
</g>
<g>
	<path class="st0" d="M94.9,56.6v2.2H88v-2.2h2.1v-8.3H88V46h6.8v2.2h-1.7v4.1l4.5-4.1h-1.7V46h6.1v2.2h-1.7l-3.8,3.4l4.7,5h1.3v2.2
		h-6.4v-2.2h1.4l-3-3.2l-1.5,1.3v2H94.9z"/>
	<path class="st0" d="M111.8,55.7l1,0.6c-0.8,1.8-2.2,2.7-4.1,2.7c-3,0-5-2.2-5-5c0-3.1,2.5-4.9,5-4.9c3.1,0,4.7,2.1,4.5,5.3h-6.7
		c0.1,1.8,1.3,2.7,2.8,2.7C110.6,57.2,111.4,56.7,111.8,55.7z M108.9,51c-1.2,0-2.1,0.9-2.2,2.1h4.3C111,51.8,110.2,51,108.9,51z"/>
	<path class="st0" d="M120.3,58.9h-1.8l-3.2-7.1h-1v-2.2h5.3v2.2h-1.3c0.5,1.4,1,3,1.3,4.3c0.6-2,1.5-4.5,2.2-6.5h1.5
		c0.6,1.8,1.7,4.5,2.2,6.5c0.3-1.3,0.8-2.9,1.2-4.3h-1.3v-2.2h4.7v2.2h-1.1l-2.8,7.1h-1.8c-0.7-1.8-1.5-4.1-2-5.9
		C121.7,54.8,120.9,57.1,120.3,58.9z"/>
	<path class="st0" d="M88,77.9v-2.2h2.1v-8.3H88v-2.2h7.7c2.7,0,5.1,1.4,5.1,4c0,2.1-1.7,4-5.3,4h-2.5v2.6h2.3v2.2H88z M93.1,67.4
		v3.7h2.1c1.7,0,2.5-0.8,2.5-1.9c0-1-0.6-1.9-2.2-1.9H93.1z"/>
	<path class="st0" d="M107.5,71.7c0-1.6-0.7-2.2-1.9-2.2c-0.6,0-1.1,0.1-1.5,0.4c0.7,0.1,1,0.6,1,1.2c0,0.8-0.7,1.3-1.5,1.3
		c-0.7,0-1.5-0.5-1.5-1.5c0-1.5,1.7-2.5,4-2.5c2.6,0,4.2,0.9,4.2,3.3c0,1.6-0.2,2.7-0.2,3.9c0,0.4,0.1,0.6,0.4,0.6s0.5-0.1,0.5-0.7
		v-0.8h1.1v0.7c0,1.7-0.6,2.8-2.1,2.8c-0.9,0-1.7-0.4-1.7-1.9c0-0.4,0-0.8,0.1-1.1H108c-0.4,2.1-1.9,3.2-3.5,3.2c-1.7,0-3-0.9-3-2.7
		c0-1.6,1.5-3,4.4-3c0.5,0,1,0,1.5,0.1C107.4,72.3,107.5,72,107.5,71.7z M106.4,73.4c-1.5,0-2.1,0.8-2.1,1.5c0,0.7,0.5,1.1,1.2,1.1
		c0.8,0,1.8-0.5,1.9-2.5C107,73.4,106.7,73.4,106.4,73.4z"/>
	<path class="st0" d="M118.7,75.7v2.2H113v-2.2h1.7v-8.3H113v-2.2h4.3v10.5H118.7z"/>
	<path class="st0" d="M126.1,71.7c0-1.6-0.7-2.2-1.9-2.2c-0.6,0-1.1,0.1-1.5,0.4c0.7,0.1,1,0.6,1,1.2c0,0.8-0.7,1.3-1.5,1.3
		c-0.7,0-1.5-0.5-1.5-1.5c0-1.5,1.7-2.5,4-2.5c2.6,0,4.2,0.9,4.2,3.3c0,1.6-0.2,2.7-0.2,3.9c0,0.4,0.1,0.6,0.4,0.6
		c0.2,0,0.5-0.1,0.5-0.7v-0.8h1.1v0.7c0,1.7-0.6,2.8-2.1,2.8c-0.9,0-1.7-0.4-1.7-1.9c0-0.4,0-0.8,0.1-1.1h-0.2
		c-0.4,2.1-1.9,3.2-3.5,3.2c-1.7,0-3-0.9-3-2.7c0-1.6,1.5-3,4.4-3c0.5,0,1,0,1.5,0.1C126.1,72.3,126.1,72,126.1,71.7z M125,73.4
		c-1.5,0-2.1,0.8-2.1,1.5c0,0.7,0.5,1.1,1.2,1.1c0.8,0,1.8-0.5,1.9-2.5C125.7,73.4,125.3,73.4,125,73.4z"/>
	<path class="st0" d="M136.2,69.6c-1.6,0-2.6,1.6-2.6,3.1c0,1.8,1.1,3,2.7,3c0.9,0,1.8-0.4,2.4-1.4l1.5,1.6
		c-0.9,1.5-2.3,2.2-4.2,2.2c-2.9,0-4.8-2.3-4.8-4.9c0-3.1,2.4-5,5-5c1.9,0,3.5,0.8,3.5,2.4c0,1-0.8,1.8-1.8,1.8
		c-1,0-1.7-0.5-1.7-1.6c0-0.5,0.2-1,0.6-1.2C136.6,69.7,136.5,69.6,136.2,69.6z"/>
	<path class="st0" d="M148.9,74.8l1,0.6c-0.8,1.8-2.2,2.7-4.1,2.7c-3,0-5-2.2-5-5c0-3.1,2.5-4.9,5-4.9c3.1,0,4.7,2.1,4.5,5.3h-6.7
		c0.1,1.8,1.3,2.7,2.8,2.7C147.6,76.3,148.5,75.8,148.9,74.8z M146,70.1c-1.2,0-2.1,0.9-2.2,2.1h4.3C148,70.9,147.3,70.1,146,70.1z"
		/>
</g>
</svg>
