<?xml version="1.0" encoding="utf-8"?>
<!-- Generator: Adobe Illustrator 19.2.1, SVG Export Plug-In . SVG Version: 6.00 Build 0)  -->
<svg version="1.1" id="Layer_1" xmlns="http://www.w3.org/2000/svg" xmlns:xlink="http://www.w3.org/1999/xlink" x="0px" y="0px"
	 viewBox="0 0 240 95" style="enable-background:new 0 0 240 95;" xml:space="preserve">
<style type="text/css">
	.st0{fill:#FFFFFF;}
</style>
<g>
	<g>
		<path class="st0" d="M34.9,83.5h10.6V72.9H34.9V83.5z M45.9,83.5h10.6V72.9H45.9V83.5z M57,83.5h10.6V72.9H57V83.5z M68,83.5h10.6
			V72.9H68V83.5z M79.1,83.5h10.6V72.9H79.1V83.5z M79.1,61.4h10.6V50.8H79.1V61.4z M34.9,72.5h10.6V61.9H34.9V72.5z M79.6,28.5
			c0,0-0.1-1.9,1.2-2.9l0.4-0.2c1.2-0.8,1.5-1.1,2.1-1.9s0.6-1.2,0.6-2.2h0.3v-1.2h-0.2c-0.1,0-0.7-0.1-0.7-0.7
			c0-0.4,0.3-0.7,0.4-0.7h0.2l0.2-0.9h0.5l0.2,0.9h0.2c0.1,0,0.4,0.3,0.4,0.7c0,0.6-0.5,0.7-0.6,0.7h-0.2v1.2h0.4
			c0,1,0.6,2.1,0.6,2.2c0.6,0.8,0.9,1.1,2.1,1.9l0.4,0.2c1.3,1,1.2,2.8,1.2,2.8l0.5,0.1c0-0.1,0.1-2.1-1.4-3.3L87.8,25
			c-1.2-0.8-1.4-1-2-1.8c0,0-0.5-1.1-0.5-2v-0.5h-0.4v-0.3c0.4-0.1,0.8-0.4,0.8-1.1c0-0.5-0.4-1-0.7-1.1l-0.2-1h-0.4v-0.8h0.7v-0.5
			h-0.7v-3.2h-0.4v3.2h-0.6v0.5h0.6v0.8h-0.4l-0.2,1c-0.4,0.1-0.7,0.6-0.7,1.1c0,0.7,0.4,1.1,0.8,1.1v0.3h-0.3v0.5
			c0,0.9,0,1.2-0.5,1.9c-0.5,0.8-0.8,1-2,1.8l-0.4,0.2c-1.5,1.1-1.4,3.2-1.4,3.3L79.6,28.5z M35.3,28.5c0,0-0.1-1.9,1.2-2.9l0.4-0.2
			c1.2-0.8,1.5-1.1,2.1-1.9c0.5-0.8,0.6-1.2,0.6-2.2h0.3v-1.2h-0.2c-0.1,0-0.6-0.1-0.6-0.7c0-0.4,0.3-0.7,0.4-0.7h0.2l0.2-0.9h0.5
			l0.2,0.9h0.1c0.1,0,0.4,0.3,0.4,0.7c0,0.6-0.5,0.7-0.6,0.7h-0.2v1.2h0.4c0,1,0.6,2.1,0.6,2.2c0.6,0.8,0.9,1.1,2.1,1.9l0.4,0.2
			c1.3,1,1.2,2.8,1.2,2.8l0.5,0.1c0-0.1,0.1-2.1-1.4-3.3L43.7,25c-1.1-0.8-1.4-1-2-1.7c0,0-0.5-1-0.5-1.8v-0.5h-0.4v-0.3
			c0.5-0.1,0.8-0.5,0.8-1.1c0-0.5-0.4-1-0.7-1.1l-0.2-1.1h-0.4v-0.8h0.7v-0.5h-0.7v-3.2h-0.5v3.2h-0.6v0.5h0.6v0.8h-0.4l-0.2,1
			c-0.4,0.1-0.7,0.6-0.7,1.1c0,0.7,0.4,1.1,0.8,1.1v0.3h-0.4v0.5c0,0.8-0.1,1.1-0.5,1.8c-0.5,0.8-0.8,1-2,1.8l-0.4,0.2
			c-1.5,1.1-1.4,3.2-1.4,3.3L35.3,28.5z M75.8,39.8h-2.3v-3.3h-3.3v3.3H68v-3.3h-3.3v3.3h-2.3v-3.3h-3.3v3.3H57v10.6h10.6V39.8h-2.3
			V37h2.3v2.8H68v10.5h10.6V39.8h-2.3V37h2.5v-0.5h-3V39.8L75.8,39.8z M62,39.8h-2.3V37H62V39.8z M73.1,39.8h-2.3V37h2.3V39.8z
			 M53.7,39.8h-2.3v-3.3h-3.3v3.3h-2.3v10.6h10.6V39.8H57v-3.3h-3.3V39.8z M51,39.8h-2.3V37H51V39.8z M54.2,37h2.3v2.8h-2.3V37z
			 M45.9,61.4h10.6V50.8H45.9V61.4z M50.4,54.7c0-0.5,0.4-0.8,0.8-0.8s0.8,0.4,0.8,0.8v3.7h-1.6C50.4,58.5,50.4,54.7,50.4,54.7z
			 M34.9,61.4h10.6V50.8H34.9V61.4z M39.3,54.7c0-0.5,0.4-0.8,0.8-0.8s0.8,0.4,0.8,0.8v3.7h-1.7V54.7L39.3,54.7z M57,72.5h10.6V61.9
			H57V72.5z M61.4,65.7c0-0.5,0.4-0.8,0.8-0.8c0.5,0,0.8,0.4,0.8,0.8v3.7h-1.6L61.4,65.7L61.4,65.7z M45.9,72.5h10.6V61.9H45.9V72.5
			z M49.5,65.5c0-1,0.8-1.7,1.7-1.7s1.7,0.8,1.7,1.7v5h-3.3C49.5,70.5,49.5,65.5,49.5,65.5z M68,72.5h10.6V61.9H68V72.5z M72.6,65.7
			c0-0.5,0.4-0.8,0.8-0.8c0.5,0,0.8,0.4,0.8,0.8v3.7h-1.6L72.6,65.7L72.6,65.7z M79.1,72.5h10.6V61.9H79.1V72.5z M83.5,65.7
			c0-0.5,0.4-0.8,0.8-0.8s0.8,0.4,0.8,0.8v3.7h-1.7V65.7L83.5,65.7z M34.9,39.3h10.6V28.7H34.9V39.3z M41.7,32.1
			c0-0.3,0.2-0.5,0.5-0.5s0.5,0.2,0.5,0.5v2.4h-1.1C41.7,34.5,41.7,32.1,41.7,32.1z M37.5,32.1c0-0.3,0.2-0.5,0.5-0.5
			s0.5,0.2,0.5,0.5v2.4h-1.1C37.5,34.5,37.5,32.1,37.5,32.1z M79.1,28.7v10.6h10.6V28.7H79.1z M81.7,34.5v-2.4
			c0-0.3,0.2-0.5,0.5-0.5s0.5,0.2,0.5,0.5v2.4H81.7z M86,34.5v-2.4c0-0.3,0.2-0.5,0.5-0.5s0.5,0.2,0.5,0.5v2.4H86z M34.9,50.3h10.6
			V39.8H34.9V50.3z M41.7,41.8c0-0.3,0.2-0.5,0.5-0.5s0.5,0.2,0.5,0.5v2.4h-1.1C41.7,44.3,41.7,41.8,41.7,41.8z M37.5,41.8
			c0-0.3,0.2-0.5,0.5-0.5s0.5,0.2,0.5,0.5v2.4h-1.1C37.5,44.3,37.5,41.8,37.5,41.8z M79.1,50.3h10.6V39.8H79.1V50.3z M86,41.8
			c0-0.3,0.2-0.5,0.5-0.5s0.5,0.2,0.5,0.5v2.4H86L86,41.8L86,41.8z M81.7,41.8c0-0.3,0.2-0.5,0.5-0.5s0.5,0.2,0.5,0.5v2.4h-1.1V41.8
			L81.7,41.8z M57,61.4h10.6V50.8H57V61.4z M61.4,54.7c0-0.5,0.4-0.8,0.8-0.8c0.5,0,0.8,0.4,0.8,0.8v3.7h-1.7V54.7L61.4,54.7z
			 M68,61.4h10.6V50.8H68V61.4z M72.6,54.7c0-0.5,0.4-0.8,0.8-0.8c0.5,0,0.8,0.4,0.8,0.8v3.7h-1.7V54.7z"/>
	</g>
</g>
<g>
	<path class="st0" d="M115.1,53.8v8.3h2.2v2.2H110v-2.2h2.2v-8.3h-1.4c-1.5,0-1.9,0.7-1.9,1.9v1.2h-2v-5.4h13.5v5.4h-2v-1.2
		c0-1.3-0.5-1.9-1.9-1.9H115.1z"/>
	<path class="st0" d="M125.9,64.6c-2.9,0-5.2-2.2-5.2-5c0-2.9,2.3-4.9,5.2-4.9c2.9,0,5.2,2.1,5.2,4.9
		C131.1,62.4,128.8,64.6,125.9,64.6z M125.9,62.9c1.7,0,2.1-0.5,2.1-3.1c0-2.3-0.4-3.1-2.1-3.1c-1.6,0-2.2,0.6-2.2,3.1
		C123.7,62.2,124.2,62.9,125.9,62.9z"/>
	<path class="st0" d="M137.5,64.4h-1.8l-3.2-7.1h-1v-2.2h5.3v2.2h-1.3c0.5,1.4,1,3,1.3,4.3c0.6-2,1.5-4.5,2.2-6.5h1.5
		c0.6,1.8,1.7,4.5,2.2,6.5c0.3-1.3,0.8-2.9,1.2-4.3h-1.3v-2.2h4.7v2.2h-1.1l-2.8,7.1h-1.8c-0.7-1.8-1.5-4.1-2-5.9
		C138.9,60.3,138.2,62.6,137.5,64.4z"/>
	<path class="st0" d="M155.6,61.2l1,0.6c-0.8,1.8-2.2,2.7-4.1,2.7c-3,0-5-2.2-5-5c0-3.1,2.5-4.9,5-4.9c3.1,0,4.7,2.1,4.5,5.3h-6.7
		c0.1,1.8,1.3,2.7,2.8,2.7C154.4,62.7,155.2,62.3,155.6,61.2z M152.7,56.6c-1.2,0-2.1,0.9-2.2,2.1h4.3
		C154.8,57.3,154,56.6,152.7,56.6z"/>
	<path class="st0" d="M164.7,54.8c1.5,0,2.3,0.9,2.3,2.1c0,1.1-0.7,1.9-1.8,1.9c-1,0-1.6-0.7-1.6-1.5c0-0.5,0.2-0.8,0.5-1
		c-0.2,0-0.3,0.1-0.6,0.1c-0.7,0.3-1.4,1.3-1.4,2.8v2.9h2.2v2.2h-6.4v-2.2h1.6v-4.8h-1.7v-2.2h3.8c0,0.7-0.1,2-0.2,2.9h0.2
		C161.8,56.1,163.1,54.8,164.7,54.8z"/>
	<path class="st0" d="M111.9,83.7c-2.9,0-5.2-2.2-5.2-5c0-2.9,2.3-4.9,5.2-4.9c2.9,0,5.2,2.1,5.2,4.9
		C117.1,81.5,114.8,83.7,111.9,83.7z M111.9,82c1.7,0,2.1-0.5,2.1-3.1c0-2.3-0.4-3.1-2.1-3.1c-1.6,0-2.2,0.6-2.2,3.1
		C109.8,81.3,110.2,82,111.9,82z"/>
	<path class="st0" d="M124.4,81.2v2.2h-6.2v-2.2h1.7v-4.8h-2.1v-1.1h0.9c1.1,0,1.5-0.6,1.5-1.5c0-2.4,1.6-3.4,3.3-3.4
		c1.7,0,2.9,0.8,2.9,2.3c0,0.8-0.6,1.4-1.5,1.4c-0.8,0-1.4-0.4-1.4-1.1c0-0.5,0.3-1,0.8-1.1c-0.2-0.1-0.4-0.2-0.8-0.2
		c-1,0-1.6,0.8-1.6,1.7c0,0.8,0.5,1.7,1.9,1.7h1.5v1.5h-2.7v4.8H124.4z"/>
	<path class="st0" d="M136.8,72.9v8.3h3.2c1.5,0,1.9-0.7,1.9-2v-1.5h2v5.7h-12.1v-2.2h2.1v-8.3h-2.1v-2.2h7.2v2.2H136.8z"/>
	<path class="st0" d="M150.2,83.7c-2.9,0-5.2-2.2-5.2-5c0-2.9,2.3-4.9,5.2-4.9c2.9,0,5.2,2.1,5.2,4.9
		C155.3,81.5,153.1,83.7,150.2,83.7z M150.2,82c1.7,0,2.1-0.5,2.1-3.1c0-2.3-0.4-3.1-2.1-3.1c-1.6,0-2.2,0.6-2.2,3.1
		C148,81.3,148.5,82,150.2,82z"/>
	<path class="st0" d="M159.8,77.6c0.4-2.5,1.8-3.8,3.8-3.8c2,0,3.1,1.2,3.1,3.2v4.1h1.2v2.2h-5.3v-2.2h1.5v-2.9c0-1.6-0.5-2-1.5-2
		c-1.2,0-2.1,0.7-2.1,2v2.8h1.4v2.2h-5.7v-2.2h1.7v-4.8h-1.7v-2.2h3.7c0,0.8-0.1,2.6-0.2,3.4H159.8z"/>
	<path class="st0" d="M176.6,81.3L176.6,81.3c-0.6,1.3-1.7,2.4-3.9,2.4c-2.4,0-4.2-2.1-4.2-4.9c0-2.8,1.9-4.9,4.3-4.9
		c1.8,0,2.9,0.8,3.4,2h0.1c-0.1-0.6-0.1-1.3-0.1-2v-1h-1.9v-2.2h4.3v10.6h1.8v2.2h-3.9C176.5,82.7,176.5,82.1,176.6,81.3z
		 M171.4,78.7c0,1.8,0.8,3.1,2.2,3.1c1.5,0,2.4-1.1,2.4-3.1c0-1.9-0.8-2.9-2.3-2.9C172.3,75.8,171.4,76.9,171.4,78.7z"/>
	<path class="st0" d="M186.4,83.7c-2.9,0-5.2-2.2-5.2-5c0-2.9,2.3-4.9,5.2-4.9c2.9,0,5.2,2.1,5.2,4.9
		C191.5,81.5,189.3,83.7,186.4,83.7z M186.4,82c1.7,0,2.1-0.5,2.1-3.1c0-2.3-0.4-3.1-2.1-3.1c-1.6,0-2.2,0.6-2.2,3.1
		C184.2,81.3,184.7,82,186.4,82z"/>
	<path class="st0" d="M196,77.6c0.4-2.5,1.8-3.8,3.8-3.8c2,0,3.1,1.2,3.1,3.2v4.1h1.2v2.2h-5.3v-2.2h1.5v-2.9c0-1.6-0.5-2-1.5-2
		c-1.2,0-2.1,0.7-2.1,2v2.8h1.4v2.2h-5.7v-2.2h1.7v-4.8h-1.7v-2.2h3.7c0,0.8-0.1,2.6-0.2,3.4H196z"/>
</g>
</svg>
